<?xml version="1.0" standalone="no"?>
<!DOCTYPE svg PUBLIC "-//W3C//DTD SVG 1.1//EN" "http://www.w3.org/Graphics/SVG/1.1/DTD/svg11.dtd" >
<svg xmlns="http://www.w3.org/2000/svg" xmlns:xlink="http://www.w3.org/1999/xlink" version="1.1">
<metadata>
Created by FontForge 20161003 at Tue May 30 17:36:24 2017
 By www-data
</metadata>
<defs>
<font id="icomoon" horiz-adv-x="1024" >
  <font-face 
    font-family="icomoon"
    font-weight="400"
    font-stretch="normal"
    units-per-em="1024"
    panose-1="0 0 0 0 0 0 0 0 0 0"
    ascent="960"
    descent="-64"
    bbox="-0.564103 -64.2727 1024.27 960.235"
    underline-thickness="0"
    underline-position="0"
    unicode-range="U+0001-FFFD"
  />
<missing-glyph 
 />
    <glyph glyph-name=".notdef" unicode="&#xfffd;" 
 />
    <glyph glyph-name="glyph1" horiz-adv-x="0" 
d="M0 0v0v0v0z" />
    <glyph glyph-name="glyph1" horiz-adv-x="0" 
d="M0 0v0v0v0z" />
    <glyph glyph-name="nonmarkingreturn" horiz-adv-x="341" 
 />
    <glyph glyph-name="uni0001" horiz-adv-x="0" 
d="M0 0v0v0v0z" />
    <glyph glyph-name="space" unicode=" " horiz-adv-x="512" 
d="M0 0v0v0v0z" />
    <glyph glyph-name="uniE900" unicode="&#xe900;" 
d="M512 156q-14 0 -27 5.5t-24 15.5l-440 440q-21 21 -21 51t21 51t50.5 21t50.5 -21l390 -390l390 390q21 21 50.5 21t50.5 -21t21 -51t-21 -51l-440 -440q-11 -10 -24 -15.5t-27 -5.5v0z" />
    <glyph glyph-name="uniE901" unicode="&#xe901;" 
d="M512 960q-106 0 -199.5 -40t-163 -109.5t-109.5 -163t-40 -199.5t40 -199.5t109.5 -163t163 -109.5t199.5 -40t199.5 40t163 109.5t109.5 163t40 199.5t-40 199.5t-109.5 163t-163 109.5t-199.5 40zM512 16q-89 0 -168 34t-137.5 92.5t-92.5 137.5t-34 168t34 168
t92.5 137.5t137.5 92.5t168 34t168 -34t137.5 -92.5t92.5 -137.5t34 -168t-34 -168t-92.5 -137.5t-137.5 -92.5t-168 -34zM478 589l-59 51q-56 -41 -93.5 -109t-37.5 -146q0 -62 30 -95.5t70 -33.5q36 0 61.5 27t25.5 65q0 37 -22.5 61.5t-56.5 24.5q-6 0 -13 -1.5t-8 -1.5
q5 41 34.5 86t68.5 72zM654 434q-5 0 -12 -1.5t-9 -1.5q5 41 34.5 86t68.5 72l-60 51q-55 -41 -92.5 -109t-37.5 -146q0 -62 30 -95.5t70 -33.5q36 0 61.5 27t25.5 65q0 37 -22.5 61.5t-56.5 24.5v0z" />
    <glyph glyph-name="uniE902" unicode="&#xe902;" 
d="M508 408h2h2h0.5h0.5h1h1q47 1 84.5 17.5t65.5 47.5q30 34 44.5 78t19.5 83.5t4 68.5t-2 35q-4 85 -37 129t-66 63q-24 14 -53 21.5t-61 8.5h-1h-0.5h-0.5h-1q-18 0 -49.5 -5t-64.5 -24q-34 -19 -67.5 -63.5t-37.5 -129.5q0 -6 -1 -35t4 -68.5t19 -83.5t45 -78
q28 -31 65.5 -47.5t83.5 -17.5v0zM349 732v1.5v0.5q5 114 66 141.5t95 27.5h1h1h1q43 -1 99.5 -31t61.5 -138v-0.5v-1.5l1.5 -24t-2 -58.5t-15 -72.5t-36.5 -66q-20 -23 -47 -34t-62 -12h-1v0v0h-1v0q-35 1 -62 12t-47 34q-26 28 -37 66t-15 72.5t-2.5 58.5l1.5 24v0z
M947 147v0v0v2.5v3.5q-1 31 -14 89.5t-82 81.5l-0.5 0.5t-1.5 0.5q-72 18 -123.5 48.5t-52.5 31.5q-10 7 -21.5 5t-18.5 -12t-5 -21.5t12 -18.5q3 -2 59 -35t135 -53q37 -14 46 -48.5t10 -70.5v-3v-2q1 -15 -0.5 -34t-3.5 -32q-13 -7 -44 -21.5t-79 -29t-111 -25.5t-140 -11
q-76 0 -139.5 11t-111 25.5t-79 29t-44.5 21.5q-2 13 -3.5 32t-0.5 34v2.5v2.5q1 36 10 71t46 48q79 20 135 53t59 35q10 7 12 18.5t-5 21.5t-18.5 12t-21.5 -5q-1 0 -52.5 -31t-123.5 -49q-1 0 -1.5 -0.5l-0.5 -0.5q-69 -23 -82 -81.5t-14 -89.5v-3v-3v0v0q-1 -8 0.5 -41.5
t9.5 -54.5q2 -4 5 -7.5t6 -6.5q3 -1 32 -17t82 -35t129 -34t171 -15q96 0 171.5 15.5t129 34t82.5 34.5t31 17q4 3 7 6.5t4 7.5q8 21 9.5 54t0.5 42v0z" />
    <glyph glyph-name="uniE903" unicode="&#xe903;" 
d="M38 837h108l155 -559q3 -13 13.5 -20.5t23.5 -7.5h475q12 0 21 6t14 16l173 398q4 9 3 18.5t-6 17.5t-13.5 12.5t-18.5 4.5h-525q-16 0 -27 -11t-11 -27q0 -15 11 -26t27 -11h467l-140 -322h-422l-154 559q-4 12 -14 20t-23 8h-137q-16 0 -27 -11.5t-11 -26.5
q0 -16 11 -27t27 -11v0zM302 -17q35 0 60.5 25.5t25.5 60.5q0 36 -25.5 61t-60.5 25q-36 0 -61 -25t-25 -61q0 -35 25 -60.5t61 -25.5v0zM838 -17h3.5h3.5q17 2 32 9.5t26 20.5q12 13 17 29t4 33q-2 36 -29 59t-62 21q-36 -2 -59 -29t-21 -63q3 -33 27.5 -56.5t57.5 -23.5v0
z" />
    <glyph glyph-name="uniE904" unicode="&#xe904;" 
d="M991 27l-243 254q47 56 72 124t25 142q0 85 -33 160.5t-89 131.5t-131 88.5t-161 32.5q-85 0 -160.5 -32.5t-131.5 -88.5t-88.5 -131.5t-32.5 -160.5q0 -86 32.5 -161t88.5 -131.5t131.5 -89t160.5 -32.5q64 0 124.5 19t112.5 56l246 -255q7 -8 17 -12.5t21 -4.5t20.5 4
t17.5 11q16 16 16.5 38t-15.5 38v0zM431 852q63 0 119 -24t97.5 -65.5t65.5 -97t24 -118.5q0 -64 -24 -119.5t-65.5 -97t-97.5 -65.5t-119 -24t-118.5 24t-97 65.5t-65.5 97t-24 119.5q0 63 24 118.5t65.5 97t97 65.5t118.5 24v0z" />
    <glyph glyph-name="uniE905" unicode="&#xe905;" 
d="M783 397l-440 -440q-21 -21 -51 -21t-51 21t-21 50.5t21 50.5l390 390l-390 390q-21 21 -21 50.5t21 50.5t51 21t51 -21l440 -440q10 -11 15.5 -24t5.5 -27t-5.5 -27t-15.5 -24v0z" />
    <glyph glyph-name="uniE906" unicode="&#xe906;" 
d="M946 626l-250 18q-3 0 -6.5 2t-4.5 6l-95 232q-10 24 -31 38t-47 14t-46.5 -14t-30.5 -38l-96 -232q-1 -4 -4 -6t-7 -3l-250 -18q-25 -1 -45 -16.5t-28 -39.5q-9 -25 -2.5 -49.5t27.5 -41.5l193 -159q3 -3 4 -6.5t0 -7.5l-59 -241q-5 -18 -1.5 -37t14.5 -34
q12 -15 29.5 -24t36.5 -9q12 0 23.5 3.5t20.5 10.5l211 131q3 2 7 2t8 -2l213 -131q10 -7 21 -10.5t23 -3.5q18 0 35 8.5t28 22.5q12 15 16.5 34t-0.5 39l-59 241q-1 4 0.5 7.5t4.5 6.5l196 160q20 17 26.5 41t-2.5 49q-8 24 -28 39.5t-45 17.5v0zM962 518l-195 -159
q-15 -12 -21 -30t-1 -36l59 -241q2 -11 -1 -18t-5 -11q-5 -5 -11 -8.5t-13 -3.5q-4 0 -8 1.5t-8 4.5l-214 131q-8 5 -16.5 7.5t-17.5 2.5t-18 -2.5t-17 -7.5l-211 -131q-11 -7 -22.5 -4.5t-19.5 11.5q-3 4 -5 11t1 16l59 242q4 18 -1.5 36t-20.5 29l-192 160q-12 9 -11.5 20
t1.5 14q2 4 8 13t21 9l250 18q18 2 33 12.5t22 27.5l95 232q6 14 16.5 17t13.5 3q4 0 14.5 -3t15.5 -17l96 -232q7 -17 22 -27.5t33 -12.5l250 -18q15 -1 21 -9.5t7 -12.5q1 -3 1.5 -13.5t-10.5 -20.5v0z" />
    <glyph glyph-name="uniE907" unicode="&#xe907;" 
d="M953 889q-35 36 -79.5 53.5t-91 17.5t-91.5 -17.5t-80 -53.5l-171 -171q-11 -11 -11 -26.5t11 -26.5q10 -11 25.5 -11t26.5 11l171 172q24 23 54.5 35.5t64.5 12.5t64.5 -12.5t54.5 -36.5q23 -23 35.5 -53.5t12.5 -64.5t-12.5 -64.5t-35.5 -54.5l-224 -224
q-49 -49 -118.5 -49t-118.5 49q-11 11 -26.5 11t-26.5 -11q-11 -10 -11 -25.5t11 -26.5q35 -36 80 -53.5t91 -17.5q47 0 91.5 17.5t79.5 53.5l224 224q34 34 52.5 78t18.5 93t-18.5 93t-52.5 78v0zM505 204l-144 -145q-24 -23 -54.5 -35.5t-64.5 -12.5t-64.5 12.5
t-54.5 35.5q-49 49 -49 118.5t49 118.5l211 211q24 24 54.5 36.5t64.5 12.5q33 0 64 -12.5t54 -36.5q11 -11 26.5 -11t26.5 11t11 26.5t-11 26.5q-35 35 -80 53t-91.5 18t-91 -18t-80.5 -53l-210 -211q-34 -34 -52.5 -78t-18.5 -93t18.5 -93t52.5 -78t78 -52.5t93 -18.5
t93 18.5t78 52.5l145 145q11 10 11 25.5t-11 26.5t-26.5 11t-26.5 -11v0zM633 140q-15 0 -26 -11t-11 -26v-112q0 -15 11 -26t26 -11q16 0 27 11t11 26v112q0 15 -11 26t-27 11zM767 167q-11 10 -26.5 10t-26.5 -10q-11 -11 -11 -26.5t11 -26.5l79 -79q6 -6 13 -8.5t14 -2.5
t14 2.5t12 8.5q11 11 11 26.5t-11 26.5l-79 79v0zM856 289h-111q-16 0 -27 -11t-11 -26t11 -26t27 -11h111q16 0 27 11t11 26t-11 26t-27 11zM335 718q16 0 27 11t11 26v112q0 15 -11 26t-27 11q-15 0 -26 -11t-11 -26v-112q0 -15 11 -26t26 -11zM197 691q6 -5 12.5 -8
t14.5 -3q7 0 13.5 3t12.5 8q11 11 11 26.5t-11 26.5l-79 79q-11 11 -26.5 11t-26.5 -11t-11 -26.5t11 -26.5zM111 569h112q15 0 26 11t11 26t-11 26t-26 11h-112q-15 0 -26 -11t-11 -26t11 -26t26 -11v0z" />
    <glyph glyph-name="uniE908" unicode="&#xe908;" 
d="M1018 873q-1 35 -18.5 56.5t-49.5 24.5h-1.5h-1.5l-281 6q-37 0 -62 -11t-39 -24l-1 -1l-543 -544q-21 -21 -21 -51.5t21 -50.5l321 -321q10 -11 23 -16t28 -5v0q14 0 27 5t24 16l267 266l4 4t4 5l261 261q12 14 28.5 44.5t15.5 72.5l-6 263v0zM943 529l-262 -262l-2 -2
t-1 -2q-1 -1 -1.5 -2t-1.5 -2l-267 -267q-6 -6 -15 -6t-15 6l-321 322q-7 6 -7 15t7 15l542 543q10 7 26.5 14.5t40.5 7.5l279 -5q8 -2 14.5 -8t7.5 -24l6 -263q0 -29 -11 -50t-19 -30v0zM788 822q-40 0 -68 -28t-28 -68q0 -41 28 -69t68 -28q41 0 69 28t28 69q0 40 -28 68
t-69 28v0zM788 680q-18 0 -31.5 13.5t-13.5 32.5q0 18 13.5 31.5t31.5 13.5q19 0 32.5 -13.5t13.5 -31.5q0 -19 -13.5 -32.5t-32.5 -13.5zM606 429q8 -7 8 -17.5t-8 -17.5l-213 -214q-4 -4 -8.5 -5.5t-9.5 -1.5t-9.5 2t-8.5 5q-7 7 -7 18t7 18l214 213q7 8 17.5 8t17.5 -8z
M579 578l-292 -292q-5 -4 -9 -5.5t-9 -1.5t-9.5 2t-8.5 5q-7 7 -7 18t7 18l292 292q7 7 18 7t18 -7t7 -17.5t-7 -18.5v0z" />
    <glyph glyph-name="uniE913" unicode="&#xe913;" 
d="M606 481q-7 6 -16.5 6t-16.5 -6l-42 -43q-5 2 -9.5 2.5t-9.5 0.5t-9.5 -0.5t-9.5 -2.5l-87 88q-7 6 -16.5 6t-16.5 -6q-6 -7 -6 -16.5t6 -16.5l88 -87q-2 -5 -2.5 -9.5t-0.5 -9.5q0 -22 16 -38t38 -16t38 16t16 38q0 5 -0.5 9.5t-2.5 9.5l43 42q6 7 6 16.5t-6 16.5v0z
M512 374q-6 0 -9.5 3.5t-3.5 9.5t3.5 9.5t9.5 3.5t9.5 -3.5t3.5 -9.5t-3.5 -9.5t-9.5 -3.5zM780 731l26 37l103 -72q3 -2 6 -3t7 -1h2h2q4 1 8 3t6 6q39 56 27.5 123t-67.5 106t-123 27.5t-106 -67.5q-6 -8 -4 -17t9 -15l92 -64l-25 -37q-50 32 -108.5 49t-122.5 17
q-63 0 -121.5 -17t-109.5 -49l-25 37l92 64q7 6 9 15t-4 17q-39 56 -106 67.5t-123 -27.5t-67.5 -106t27.5 -123q2 -4 6 -6t8 -3h2h2q4 0 7 1t6 3l103 72l26 -37q-38 -30 -69.5 -68t-53 -81.5t-33.5 -93t-12 -101.5q0 -57 14 -110t39.5 -99.5t62 -86t80.5 -68.5l-36 -51
q-6 -8 -4 -17t9 -15q3 -2 6.5 -3t6.5 -1q6 0 11 2.5t8 7.5l38 54q45 -24 96 -36.5t105 -12.5t105 12.5t96 36.5l38 -54q3 -5 8 -7.5t11 -2.5q3 0 6.5 1t6.5 3q7 5 9 14.5t-4 17.5l-36 51q44 29 80.5 68.5t62 86t39.5 99.5t14 110q0 52 -12 101.5t-33.5 93t-53 81.5t-69.5 68
v0zM723 881q30 29 72.5 33t78.5 -21q35 -25 46 -66.5t-6 -79.5zM110 747q-17 38 -6 79.5t46 66.5q16 11 33.5 16.5t34.5 5.5q23 0 44.5 -8.5t38.5 -25.5l-191 -134v0zM512 -4q-81 0 -152 31t-124 84t-84 124t-31 152t31 152t84 124t124 84t152 31t152 -31t124 -84t84 -124
t31 -152t-31 -152t-84 -124t-124 -84t-152 -31zM512 708q-66 0 -124.5 -25.5t-102 -69t-69 -102t-25.5 -124.5t25.5 -124.5t69 -102t102 -69t124.5 -25.5t124.5 25.5t102 69t69 102t25.5 124.5t-25.5 124.5t-69 102t-102 69t-124.5 25.5zM725 206l-15 15q-7 7 -16 7t-16 -7
q-7 -6 -7 -15.5t7 -16.5l15 -15q-32 -28 -72.5 -45t-85.5 -21v22q0 9 -7 15.5t-16 6.5t-16 -6.5t-7 -15.5v-22q-45 4 -85.5 21t-72.5 45l15 15q7 7 7 16.5t-7 15.5q-6 7 -15.5 7t-16.5 -7l-15 -15q-28 32 -45 72.5t-21 85.5h22q9 0 15.5 7t6.5 16t-6.5 16t-15.5 7h-22
q4 45 21 85.5t45 72.5l15 -15q3 -3 7.5 -5t8.5 -2t8.5 2t7.5 5q7 7 7 16t-7 16l-15 15q32 28 72.5 45t85.5 21v-22q0 -9 7 -15.5t16 -6.5t16 6.5t7 15.5v22q45 -4 85.5 -21t72.5 -45l-15 -15q-7 -7 -7 -16t7 -16q3 -3 7.5 -5t8.5 -2t8.5 2t7.5 5l15 15q28 -32 45 -72.5
t21 -85.5h-22q-9 0 -15.5 -7t-6.5 -16t6.5 -16t15.5 -7h22q-4 -45 -21 -85.5t-45 -72.5v0z" />
    <glyph glyph-name="uniE914" unicode="&#xe914;" 
d="M539 557q-55 0 -93.5 -38.5t-38.5 -92.5q0 -55 38.5 -93.5t93.5 -38.5q54 0 93 38.5t39 93.5q0 54 -39 92.5t-93 38.5zM539 344q-34 0 -58 24t-24 58t24 58t58 24t58 -24t24 -58t-24 -58t-58 -24zM1021 654q7 53 -1.5 98t-31.5 78q4 9 6 18t2 19q0 37 -26 63t-62 26
q-25 0 -45.5 -12.5t-32.5 -33.5q-62 4 -137 -18.5t-154 -68.5q-68 39 -131.5 61t-119 26t-101.5 -9.5t-77 -45.5q-28 -28 -42 -67t-14 -87q-24 -10 -39 -32t-15 -49q0 -37 26 -63t63 -26h0.5h0.5q10 -26 23 -52.5t29 -52.5q-40 -68 -61.5 -131.5t-26 -119t9.5 -101.5t46 -78
q28 -28 67 -42t86 -14q59 0 129.5 22.5t146.5 66.5q76 -44 146 -66.5t130 -22.5q47 0 86 14t67 42q32 32 45.5 78t9.5 101.5t-26 119t-61 131.5q34 59 55.5 117t29.5 111zM908 906q16 0 27 -11.5t11 -27.5t-11 -27.5t-27 -11.5t-27.5 11.5t-11.5 27.5t11.5 27.5t27.5 11.5z
M819 861q2 -35 27.5 -59t61.5 -24q12 0 24 3.5t22 9.5q14 -25 18.5 -58t-1.5 -73q-6 -42 -22.5 -89.5t-42.5 -96.5q-30 46 -66 90t-78 85q-41 42 -85 78t-90 66q64 34 123 51.5t109 16.5v0zM89 581q-16 0 -27.5 11.5t-11.5 27.5t11.5 27.5t27.5 11.5t27 -11.5t11 -27.5
t-11 -27.5t-27 -11.5zM138 546q18 12 28.5 31.5t10.5 42.5q0 33 -21 57.5t-52 29.5q0 36 10.5 64.5t30.5 48.5q24 24 60 33.5t81 6t97 -20t107 -46.5q-45 -30 -89 -66t-86 -78q-41 -41 -77 -85t-66 -90q-10 18 -18.5 36.5t-15.5 35.5v0zM145 32q-24 24 -34 60t-6.5 80.5
t20.5 96.5t47 108q30 -46 66 -89.5t77 -85.5q42 -41 86 -77t89 -66q-55 -30 -107 -47t-97 -20.5t-81 6.5t-60 34v0zM351 238q-45 44 -83 91.5t-68 96.5q30 49 68 96t83 92q44 44 91.5 82t96.5 69q49 -31 96 -69t92 -82q45 -45 82.5 -92t68.5 -96q-31 -49 -68.5 -96.5
t-82.5 -91.5q-45 -45 -92 -83t-96 -68q-49 30 -96.5 68t-91.5 83v0zM933 32q-24 -24 -60 -34t-81 -6.5t-97 20.5t-108 47q46 30 90 66t85 77q42 42 78 85.5t66 89.5q30 -56 46.5 -108t20.5 -96.5t-6 -80.5t-34 -60v0z" />
    <glyph glyph-name="uniE915" unicode="&#xe915;" 
d="M1000 47h-976q-10 0 -17 -7t-7 -17t7 -17.5t17 -7.5h976q10 0 17 7.5t7 17.5t-7 17t-17 7zM937 783h-170q-10 0 -17 -7t-7 -17v-164h-122v278q0 10 -7 17.5t-17 7.5h-170q-10 0 -17 -7.5t-7 -17.5v-457h-122v205q0 10 -7 17t-17 7h-170q-10 0 -17 -7t-7 -17v-463
q0 -10 7 -17t17 -7h850q10 0 17 7t7 17v601q0 10 -7 17t-17 7zM233 182h-122v415h122v-415zM403 182h-122v185h122v-185zM573 571v-389h-122v667h122v-278zM743 182h-122v364h122v-364zM913 182h-122v553h122v-553v0z" />
    <glyph glyph-name="uniE916" unicode="&#xe916;" 
d="M979 567h-52v80q0 28 -19.5 47.5t-47.5 19.5h-793q-28 0 -47.5 -19.5t-19.5 -47.5v-398q0 -28 19.5 -47.5t47.5 -19.5h793q28 0 47.5 19.5t19.5 47.5v80h52q19 0 32 13t13 32v148q0 19 -13 32t-32 13v0zM227 227h-160q-9 0 -15.5 6.5t-6.5 15.5v398q0 9 6.5 15.5
t15.5 6.5h160v-442zM882 249q0 -9 -6.5 -15.5t-15.5 -6.5h-589v442h589q9 0 15.5 -6.5t6.5 -15.5v-398v0zM979 374h-52v148h52v-148v0v0zM727 478q-5 7 -14 9t-16 -3l-98 -61v91q0 6 -3 11.5t-8 7.5q-6 3 -12 3t-11 -3l-132 -84q-8 -5 -10 -14t3 -17q5 -7 14 -9t17 3l97 61
v-91q0 -6 3.5 -11.5t8.5 -7.5q3 -2 5.5 -2.5t5.5 -0.5t6 1l6 2l132 84q7 5 9 14t-3 17v0z" />
    <glyph glyph-name="uniE917" unicode="&#xe917;" 
d="M979 567h-52v80q0 28 -19.5 47.5t-47.5 19.5h-793q-28 0 -47.5 -19.5t-19.5 -47.5v-398q0 -28 19.5 -47.5t47.5 -19.5h793q28 0 47.5 19.5t19.5 47.5v80h52q19 0 32 13t13 32v148q0 19 -13 32t-32 13v0zM705 227h-638q-9 0 -15.5 6.5t-6.5 15.5v398q0 9 6.5 15.5
t15.5 6.5h638v-442zM860 227h-110v442h110q9 0 15.5 -6.5t6.5 -15.5v-398v0q0 -9 -6.5 -15.5t-15.5 -6.5v0zM979 374h-52v148h52v-148v0v0z" />
    <glyph glyph-name="uniE918" unicode="&#xe918;" 
d="M876 130l-50 93v232q0 54 -17 102.5t-47 88t-72 68.5t-91 43v116q0 36 -25.5 61.5t-61.5 25.5t-61.5 -25.5t-25.5 -61.5v-116q-49 -14 -91 -43t-72 -68.5t-47 -88t-17 -102.5v-232l-50 -93q-8 -14 -7.5 -29t8.5 -28t21 -20.5t29 -7.5h198q2 -46 35.5 -77.5t79.5 -31.5
t79.5 31.5t35.5 77.5h198q16 0 29 7.5t21 20.5t8.5 28t-7.5 29zM471 873q0 17 12 29t29 12t29 -12t12 -29v-106q-10 1 -20.5 1.5t-20.5 0.5t-20.5 -0.5t-20.5 -1.5v106v0zM244 455q0 55 21 104t57.5 85.5t85.5 57.5t104 21t104 -21t85.5 -57.5t57.5 -85.5t21 -104v-212h-536
v212v0zM512 -18q-27 0 -46.5 18.5t-22.5 44.5h138q-3 -26 -22.5 -44.5t-46.5 -18.5zM835 97q0 -2 -2.5 -4t-7.5 -2h-626q-5 0 -7.5 2t-2.5 4q-1 1 -2 4t1 7l47 88h554l47 -88q2 -4 1 -7t-2 -4zM512 662q-43 0 -80.5 -16.5t-65.5 -44.5t-44.5 -65.5t-16.5 -80.5
q0 -10 7 -16.5t16 -6.5q10 0 16.5 6.5t6.5 16.5q0 66 47.5 113.5t113.5 47.5q10 0 16.5 6.5t6.5 16.5q0 9 -6.5 16t-16.5 7v0z" />
    <glyph glyph-name="uniE919" unicode="&#xe919;" 
d="M699 301l-176 150l175 144q5 4 8 10t3 12t-3 12t-8 10l-185 155q-6 5 -14 6t-16 -2q-8 -4 -12.5 -11t-4.5 -15v-273l-118 101q-7 6 -16 5t-15 -8t-5.5 -16t7.5 -15l135 -115l-134 -111q-7 -6 -8 -15t5 -16q5 -7 14.5 -8t16.5 5l118 98v-280q0 -8 4.5 -15t12.5 -11
q3 -1 6 -1.5t6 -0.5q5 0 9.5 1.5t8.5 4.5l185 155q5 4 8 10t3 12t-3 12t-7 10v0zM510 739l146 -122l-146 -120v242zM510 157v246l146 -124l-146 -122v0zM874 810q-36 36 -78 64t-88 47t-95.5 29t-100.5 10t-100.5 -10t-95.5 -29t-88 -47t-78 -64t-64 -78t-47 -88t-29 -95.5
t-10 -100.5t10 -100.5t29 -95.5t47 -88t64 -78t78 -64t88 -47t95.5 -29t100.5 -10t100.5 10t95.5 29t88 47t78 64t64 78t47 88t29 95.5t10 100.5t-10 100.5t-29 95.5t-47 88t-64 78zM512 -20q-97 0 -182 37t-148.5 100.5t-100.5 148.5t-37 182t37 182t100.5 148.5
t148.5 100.5t182 37t182 -37t148.5 -100.5t100.5 -148.5t37 -182t-37 -182t-100.5 -148.5t-148.5 -100.5t-182 -37z" />
    <glyph glyph-name="uniE91A" unicode="&#xe91a;" 
d="M861 960h-594q-52 0 -89.5 -37t-37.5 -90v-770q0 -53 37.5 -90t89.5 -37h594q9 0 16 6.5t7 16.5v0.5v0.5v1v1v975q0 10 -7 16.5t-16 6.5v0zM245 -15q-26 7 -42.5 28.5t-16.5 49.5v673q12 -11 27 -18t32 -10v-723zM267 752q-33 0 -57 23.5t-24 57.5t24 57.5t57 23.5h497
q-14 -16 -22 -37t-8 -44t8 -44t22 -37h-497v0zM690 706v-133l-27 20q-6 4 -13.5 4t-13.5 -4l-28 -21v134h82zM838 -18h-548v724h273v-179q0 -7 3.5 -12.5t8.5 -7.5q3 -2 5.5 -2.5t5.5 -0.5t6.5 1t6.5 4l51 37l49 -37q6 -4 12 -4.5t12 2.5t9.5 8.5t3.5 11.5v179h102v-724v0z
M838 755q-25 7 -42 28.5t-17 49.5t17 49.5t42 28.5v-156v0zM676 415h-224q-9 0 -15.5 -6.5t-6.5 -16.5q0 -9 6.5 -15.5t15.5 -6.5h224q9 0 16 6.5t7 15.5q0 10 -7 16.5t-16 6.5zM739 272h-350q-10 0 -16.5 -6.5t-6.5 -15.5q0 -10 6.5 -16.5t16.5 -6.5h350q10 0 16.5 6.5
t6.5 16.5q0 9 -6.5 15.5t-16.5 6.5z" />
    <glyph glyph-name="uniE91B" unicode="&#xe91b;" 
d="M979 855h-934q-18 0 -31.5 -13t-13.5 -32v-102q0 -18 13.5 -31.5t31.5 -13.5h10v-577q0 -19 13.5 -32t31.5 -13h823q19 0 32.5 13t13.5 32v577h10q18 0 31.5 13.5t13.5 31.5v102q0 19 -13.5 32t-31.5 13v0zM924 86h-823v577h823v-577v0v0zM979 708h-934v102h934v-102v0v0
zM588 365v49q0 31 -22.5 53.5t-53.5 22.5t-53.5 -22.5t-22.5 -53.5v-49q-21 -5 -35.5 -23t-14.5 -41v-78q0 -27 19.5 -46.5t46.5 -19.5h120q27 0 46.5 19.5t19.5 46.5v78q0 23 -14.5 40.5t-35.5 23.5zM477 414q0 14 10.5 24.5t24.5 10.5t24.5 -10.5t10.5 -24.5v-47h-70v47v0
zM597 223q0 -10 -7.5 -17.5t-17.5 -7.5h-120q-10 0 -17.5 7.5t-7.5 17.5v78q0 10 7.5 17.5t17.5 7.5h120q10 0 17.5 -7.5t7.5 -17.5v-78zM381 595h-197q-8 0 -14 -6t-6 -15q0 -8 6 -14t14 -6h197q9 0 15 6t6 14q0 9 -6 15t-15 6zM283 505h-99q-8 0 -14 -6t-6 -14t6 -14
t14 -6h99q8 0 14 6t6 14t-6 14t-14 6z" />
    <glyph glyph-name="uniE91C" unicode="&#xe91c;" 
d="M899 960h-774q-25 0 -42.5 -18t-17.5 -43v-902q0 -25 17.5 -43t42.5 -18h774q25 0 42.5 18t17.5 43v902q0 25 -17.5 43t-42.5 18zM113 899q0 5 3.5 9t8.5 4h774q5 0 8.5 -4t3.5 -9v-210h-798v210v0zM347 -16h-222q-5 0 -8.5 4t-3.5 9v291h234v-304v0zM347 337h-234v304
h234v-304zM629 -16h-234v304h234v-304zM629 337h-234v304h234v-304zM911 -3q0 -5 -3.5 -9t-8.5 -4h-222v657h234v-644zM290 513h-36v36q0 10 -7 17t-17 7t-17 -7t-7 -17v-36h-36q-10 0 -17 -7t-7 -17t7 -17t17 -7h36v-36q0 -10 7 -17t17 -7t17 7t7 17v36h36q10 0 17 7t7 17
t-7 17t-17 7v0zM573 513h-122q-10 0 -17 -7t-7 -17t7 -17t17 -7h122q10 0 17 7t7 17t-7 17t-17 7zM264 136l29 30q8 7 8 17t-8 17q-7 7 -17 7t-17 -7l-29 -29l-29 29q-7 7 -17.5 7t-17.5 -7t-7 -17t7 -17l30 -30l-30 -29q-7 -7 -7 -17t7 -17q4 -4 8.5 -5.5t8.5 -1.5
q5 0 9.5 1.5t8.5 5.5l29 29l29 -29q4 -4 8.5 -5.5t8.5 -1.5q5 0 9.5 1.5t7.5 5.5q8 7 8 17t-8 17l-29 29v0zM576 200q-8 7 -18 7t-17 -7l-93 -93q-7 -7 -7 -17t7 -17q4 -4 8.5 -5.5t9.5 -1.5q4 0 8.5 1.5t8.5 5.5l93 93q7 7 7 17t-7 17v0zM486 183q0 -9 -6 -15t-14 -6
q-9 0 -15 6t-6 15q0 8 6 14t15 6q8 0 14 -6t6 -14zM579 90q0 -9 -6 -15t-15 -6q-8 0 -14 6t-6 15t6 15t14 6q9 0 15 -6t6 -15zM855 379h-124q-10 0 -17 -7t-7 -17t7 -17t17 -7h124q10 0 17.5 7t7.5 17t-7.5 17t-17.5 7zM855 295h-124q-10 0 -17 -7.5t-7 -17.5t7 -17t17 -7
h124q10 0 17.5 7t7.5 17t-7.5 17.5t-17.5 7.5z" />
    <glyph glyph-name="uniE91D" unicode="&#xe91d;" 
d="M853 561q0 -10 -7.5 -17t-17.5 -7t-17 7t-7 17q0 11 7 18t17 7t17.5 -7t7.5 -18zM695 561q0 -10 -7.5 -17t-17.5 -7t-17.5 7t-7.5 17q0 11 7.5 18t17.5 7t17.5 -7t7.5 -18zM537 561q0 -10 -7.5 -17t-17.5 -7t-17.5 7t-7.5 17q0 11 7.5 18t17.5 7t17.5 -7t7.5 -18z
M379 561q0 -10 -7.5 -17t-17.5 -7t-17.5 7t-7.5 17q0 11 7.5 18t17.5 7t17.5 -7t7.5 -18zM220 561q0 -10 -7 -17t-17 -7t-17.5 7t-7.5 17q0 11 7.5 18t17.5 7t17 -7t7 -18zM853 403q0 -10 -7.5 -17t-17.5 -7t-17 7t-7 17t7 17.5t17 7.5t17.5 -7.5t7.5 -17.5zM695 403
q0 -10 -7.5 -17t-17.5 -7t-17.5 7t-7.5 17t7.5 17.5t17.5 7.5t17.5 -7.5t7.5 -17.5zM537 403q0 -10 -7.5 -17t-17.5 -7t-17.5 7t-7.5 17t7.5 17.5t17.5 7.5t17.5 -7.5t7.5 -17.5zM220 403q0 -10 -7 -17t-17 -7t-17.5 7t-7.5 17t7.5 17.5t17.5 7.5t17 -7.5t7 -17.5zM853 245
q0 -10 -7.5 -17t-17.5 -7t-17 7t-7 17t7 17.5t17 7.5t17.5 -7.5t7.5 -17.5zM695 245q0 -10 -7.5 -17t-17.5 -7t-17.5 7t-7.5 17t7.5 17.5t17.5 7.5t17.5 -7.5t7.5 -17.5zM537 245q0 -10 -7.5 -17t-17.5 -7t-17.5 7t-7.5 17t7.5 17.5t17.5 7.5t17.5 -7.5t7.5 -17.5zM379 245
q0 -10 -7.5 -17t-17.5 -7t-17.5 7t-7.5 17t7.5 17.5t17.5 7.5t17.5 -7.5t7.5 -17.5zM220 245q0 -10 -7 -17t-17 -7t-17.5 7t-7.5 17t7.5 17.5t17.5 7.5t17 -7.5t7 -17.5zM428 499h-148q-9 0 -15.5 -6.5t-6.5 -14.5v-149q0 -9 6.5 -15t15.5 -6h148q9 0 15 6t6 15v149
q0 8 -6 14.5t-15 6.5v0zM407 350h-106v106h106v-106v0zM953 782h-155v27q0 10 -7 16.5t-16 6.5q-10 0 -17 -6.5t-7 -16.5v-27h-128v27q0 10 -7 16.5t-16 6.5q-10 0 -17 -6.5t-7 -16.5v-27h-128v27q0 10 -7 16.5t-17 6.5q-9 0 -16 -6.5t-7 -16.5v-27h-128v27q0 10 -7 16.5
t-17 6.5q-9 0 -16 -6.5t-7 -16.5v-27h-155q-30 0 -50.5 -21t-20.5 -50v-577q0 -29 20.5 -49.5t50.5 -20.5h882q30 0 50.5 20.5t20.5 49.5v577q0 29 -20.5 50t-50.5 21v0zM953 111h-882q-10 0 -17 6.5t-7 16.5v577q0 10 7 17t17 7h155v-27q0 -10 7 -17t16 -7q10 0 17 7t7 17
v27h128v-27q0 -10 7 -17t16 -7q10 0 17 7t7 17v27h128v-27q0 -10 7 -17t17 -7q9 0 16 7t7 17v27h128v-27q0 -10 7 -17t17 -7q9 0 16 7t7 17v27h155q10 0 17 -7t7 -17v-577v0q0 -10 -7 -16.5t-17 -6.5v0z" />
    <glyph glyph-name="uniE91E" unicode="&#xe91e;" 
d="M955 573l-196 79q-24 9 -49.5 14t-51.5 5h-120q-32 0 -63.5 -7.5t-60.5 -22.5l-177 -89l-126 -19q-23 -3 -43.5 -14.5t-36.5 -28.5q-15 -18 -23 -40t-8 -45v-75q0 -8 6 -14.5t15 -6.5h90q3 -15 10.5 -28.5t19.5 -25.5q15 -14 34.5 -22t40.5 -8t40.5 8t34.5 22
q12 12 19.5 25.5t11.5 28.5h375q3 -15 10.5 -28.5t19.5 -25.5q15 -14 34.5 -22t40.5 -8t40.5 8t34.5 22q12 12 19.5 25.5t11.5 28.5h95q9 0 15 6.5t6 14.5v141q0 34 -19 62t-50 40v0zM744 613l150 -61h-113l-50 65q3 -1 6.5 -2t6.5 -2zM558 629h100h5.5h5.5l59 -77h-170v77z
M433 604q20 10 40.5 16t42.5 8v-76h-185l102 52v0zM113 491q-6 -22 -24 -37t-41 -17q8 21 25.5 35.5t39.5 18.5v0zM216 267q-27 0 -46.5 19t-19.5 47q0 27 19.5 46.5t46.5 19.5t46.5 -19.5t19.5 -46.5q0 -28 -19.5 -47t-46.5 -19zM802 267q-27 0 -46.5 19t-19.5 47
q0 27 19.5 46.5t46.5 19.5q28 0 47 -19.5t19 -46.5q0 -28 -19 -47t-47 -19zM982 351h-73q-7 38 -37 64t-70 26t-70 -26t-36 -64h-374q-6 38 -36 64t-70 26t-70 -26t-36 -64h-68v44q44 0 77 29.5t38 73.5l89 12h525v0v0v0v0h132v-27q0 -29 20.5 -49t49.5 -20h9v-63v0z
M982 456h-9q-12 0 -20 8t-8 19v27h25q6 -8 9 -18t3 -21v-15v0zM580 452h-138q-9 0 -15 -6.5t-6 -14.5q0 -9 6 -15t15 -6h138q9 0 15 6t6 15q0 8 -6 14.5t-15 6.5zM216 361q-11 0 -19.5 -8.5t-8.5 -19.5q0 -12 8.5 -20t19.5 -8q12 0 20 8t8 20q0 11 -8 19.5t-20 8.5zM802 361
q-11 0 -19.5 -8.5t-8.5 -19.5q0 -12 8.5 -20t19.5 -8q12 0 20 8t8 20q0 11 -8 19.5t-20 8.5z" />
    <glyph glyph-name="uniE91F" unicode="&#xe91f;" 
d="M745 858h-687q-24 0 -41 -16.5t-17 -40.5v-412q0 -24 17 -41t41 -17h44v-153q0 -8 4 -14t11 -9q2 -1 4.5 -1.5t4.5 -0.5q5 0 9.5 2t7.5 6l171 170h34q10 0 17 7t7 17t-7 17t-17 7h-22.5h-23.5q-4 0 -8 -1.5t-7 -5.5l-136 -136l-0.5 60.5l-0.5 60.5q0 10 -7 16t-17 6h-68
q-4 0 -7 3t-3 7v412q0 4 3 6.5t7 2.5h687q3 0 6 -2.5t3 -6.5v-158q0 -10 7 -17t17 -7t17 7t7 17v158q0 24 -17 40.5t-40 16.5v0zM966 563h-480q-24 0 -41 -17t-17 -41v-281q0 -24 17 -40.5t41 -16.5h301l121 -122q4 -4 8.5 -5.5t9.5 -1.5h4.5t4.5 1q7 3 11 9t4 14v105h16
q24 0 41 16.5t17 40.5v281q0 24 -17 41t-41 17zM976 224q0 -4 -3 -6.5t-7 -2.5h-40q-10 0 -17 -6.5t-7 -15.5q-1 -1 -1 -37v-36l-87 88v0h-1v0.5t-1 0.5q-3 3 -7 4.5t-8 1.5h-311q-4 0 -7 2.5t-3 6.5v281q0 4 3 7t7 3h480q4 0 7 -3t3 -7v-281v0zM726 389q-10 0 -17 -7
t-7 -17t7 -17t17 -7t17 7t7 17t-7 17t-17 7zM621 699h-68.5h-151h-151.5h-69q-10 0 -17 -7t-7 -17t7 -17.5t17 -7.5h440q10 0 17 7.5t7 17.5t-7 17t-17 7zM348 539h-167q-10 0 -17 -7t-7 -17t7 -17t17 -7h167q10 0 17 7t7 17t-7 17t-17 7zM614 389q-10 0 -17 -7t-7 -17
t7 -17t17 -7t17 7t7 17t-7 17t-17 7zM838 389q-10 0 -17 -7t-7 -17t7 -17t17 -7t17 7t7 17t-7 17t-17 7z" />
    <glyph glyph-name="uniE920" unicode="&#xe920;" 
d="M940 897h-856q-35 0 -59.5 -24.5t-24.5 -58.5v-502q0 -34 24.5 -58.5t59.5 -24.5h48v-206q0 -7 4 -13t11 -9q2 -1 4.5 -1.5t4.5 -0.5q5 0 9.5 2t7.5 5l223 223h544q35 0 59.5 24.5t24.5 58.5v502q0 34 -24.5 58.5t-59.5 24.5v0zM940 277h-554q-4 0 -8.5 -2t-7.5 -5v0v0
h-0.5t-0.5 -1l-189 -189v173v0.5v1.5q-1 9 -8 15.5t-16 6.5h-72q-15 0 -25.5 10.5t-10.5 24.5v502q0 14 10.5 24.5t25.5 10.5h856q15 0 25.5 -10.5t10.5 -24.5v-502q0 -14 -10.5 -24.5t-25.5 -10.5v0zM348 723h-139q-10 0 -17 -7t-7 -17t7 -16.5t17 -6.5h139q10 0 17 6.5
t7 16.5t-7 17t-17 7zM595 587h-386q-10 0 -17 -7t-7 -17t7 -17t17 -7h386q10 0 17 7t7 17t-7 17t-17 7zM815 723h-328q-10 0 -17 -7t-7 -17t7 -16.5t17 -6.5h328q10 0 17 6.5t7 16.5t-7 17t-17 7zM815 587h-86q-10 0 -17 -7t-7 -17t7 -17t17 -7h86q10 0 17 7t7 17t-7 17
t-17 7zM425 450h-216q-10 0 -17 -6.5t-7 -16.5t7 -17t17 -7h216q10 0 17 7t7 17t-7 16.5t-17 6.5v0zM815 450h-264q-10 0 -16.5 -6.5t-6.5 -16.5t6.5 -17t16.5 -7h264q10 0 17 7t7 17t-7 16.5t-17 6.5v0z" />
    <glyph glyph-name="uniE921" unicode="&#xe921;" 
d="M899 480q0 12 -9 19t-20 7q-11 -1 -18.5 -9.5t-6.5 -20.5q0 -7 0.5 -14t0.5 -14q0 -82 -31 -154t-85 -125.5t-126 -85t-154 -31.5t-154 31.5t-125.5 85t-84.5 125.5t-31 154t31 154t84.5 125.5t125.5 85t154 31.5q65 0 125.5 -20.5t112.5 -58.5q9 -7 20 -5.5t18 10.5
t5 20t-11 18q-58 44 -127 67t-143 23q-93 0 -175 -35.5t-143 -96.5t-96.5 -143t-35.5 -175t35.5 -175t96.5 -143t143 -96.5t175 -35.5t175 35.5t143.5 96.5t97 143t35.5 175q0 8 -0.5 16t-1.5 16v0zM993 836q-31 32 -75.5 32t-75.5 -32l-394 -394l-140 140q-31 31 -75.5 31
t-75.5 -31t-31 -75.5t31 -75.5l241 -241q10 -10 23 -15t27 -5q13 0 26 5t24 15l495 496q31 31 31 75t-31 75zM954 724l-495 -495q-5 -5 -11.5 -5t-11.5 5l-240 241q-16 15 -16 36.5t16 36.5q7 8 16.5 12t19.5 4t20 -4t17 -12l144 -143q7 -7 16 -11t19 -4q9 0 18 4t16 11
l399 398q15 15 36.5 15t36.5 -15t15 -37t-15 -37v0z" />
    <glyph glyph-name="uniE922" unicode="&#xe922;" 
d="M812 522q-1 59 -24 110t-61.5 89.5t-90.5 60.5t-110 22q-53 0 -101.5 -18t-87.5 -53q-35 -31 -58.5 -71t-33.5 -85h-1h-1q-51 0 -95 -19t-77 -52t-52 -77.5t-19 -94.5t19 -94t52 -77t77 -52t95 -19h566q44 0 83.5 16.5t68.5 46t46 68.5t17 84q0 44 -16.5 83t-45.5 68
t-67.5 46t-82.5 18v0zM809 135h-566q-41 0 -77.5 16t-63.5 43t-42.5 63t-15.5 77t15.5 77.5t42.5 63.5t63.5 42.5t77.5 15.5h8.5t10.5 -1q8 -1 15 4.5t8 14.5q6 43 27 81.5t53 67.5q34 30 75 45.5t86 15.5q50 0 94 -19t77 -52t52 -77.5t19 -94.5v-7.5v-7.5l-1 -2
q0 -5 1.5 -9.5t5.5 -7.5q3 -4 8 -5.5t9 -1.5q5 1 9 1h9q71 0 121 -50t50 -121t-50 -121.5t-121 -50.5v0zM526 702q-69 0 -121 -45.5t-61 -113.5q-2 -9 3.5 -16t14.5 -9h2h1q8 0 14.5 5.5t7.5 13.5q7 52 46.5 86.5t92.5 34.5q9 0 15 6.5t6 15.5t-6 15.5t-15 6.5v0z" />
    <glyph glyph-name="uniE923" unicode="&#xe923;" 
d="M812 570q-1 58 -24 109.5t-61.5 90t-90.5 60.5t-110 22q-53 0 -101.5 -18.5t-87.5 -52.5q-35 -31 -58.5 -71t-33.5 -85h-1h-1q-51 0 -95 -19.5t-77 -52t-52 -77t-19 -94.5t19 -94.5t52 -77t77 -52t95 -19.5h169q9 0 15.5 6.5t6.5 15.5t-6.5 15.5t-15.5 6.5h-169
q-41 0 -77.5 15.5t-63.5 42.5t-42.5 63.5t-15.5 77.5t15.5 77.5t42.5 63.5t63.5 42.5t77.5 15.5h8.5t10.5 -1q8 -1 15 4.5t8 14.5q6 43 27 81.5t53 67.5q34 29 75 45t86 16q50 0 94 -19.5t77 -52.5t52 -77t19 -94v-7.5v-7.5l-1 -2q0 -5 1.5 -9.5t5.5 -8.5q3 -3 8 -4.5
t9 -1.5q5 1 9 1h9q71 0 121 -50t50 -121t-50 -121.5t-121 -50.5h-178q-9 0 -15.5 -6.5t-6.5 -15.5t6.5 -15.5t15.5 -6.5h178q44 0 83.5 17t68.5 46.5t46 68.5t17 84q0 44 -16.5 82.5t-45.5 68t-67.5 46.5t-82.5 18v0zM526 750q-69 0 -121 -45.5t-61 -113.5q-2 -9 3.5 -16
t14.5 -9h2h1q8 0 14.5 5.5t7.5 13.5q7 52 46.5 86.5t92.5 34.5q9 0 15 6.5t6 15.5t-6 15.5t-15 6.5zM625 320l-80 71q-10 9 -23.5 9t-24.5 -9l-79 -71q-7 -6 -7.5 -15t5.5 -16t15 -7.5t16 5.5l53 47v-268q0 -9 6 -15.5t15 -6.5t15.5 6.5t6.5 15.5v268l53 -47q3 -2 6.5 -3.5
t7.5 -1.5q5 0 9 1.5t8 5.5q6 7 5.5 16t-7.5 15v0z" />
    <glyph glyph-name="uniE924" unicode="&#xe924;" 
d="M812 585q-1 59 -24 110.5t-61.5 89.5t-90.5 60.5t-110 22.5q-53 0 -101.5 -18.5t-87.5 -53.5q-35 -31 -58.5 -71t-33.5 -85h-1h-1q-51 0 -95 -19t-77 -52t-52 -77.5t-19 -94.5t19 -94t52 -77t77 -52t95 -19h89q9 0 15.5 6t6.5 15q0 10 -6.5 16t-15.5 6h-89
q-41 0 -77.5 16t-63.5 43t-42.5 63t-15.5 77t15.5 77.5t42.5 63.5t63.5 42.5t77.5 15.5h8.5t10.5 -1q8 0 15 5t8 14q6 43 27 81.5t53 67.5q34 30 75 45.5t86 15.5q50 0 94 -19t77 -52t52 -77.5t19 -94.5q0 -4 -0.5 -10.5l-0.5 -6.5q0 -5 1.5 -9.5t5.5 -7.5q3 -4 8 -5.5
t9 -0.5h9h9q71 0 121 -50t50 -121t-50 -121.5t-121 -50.5h-98q-9 0 -15.5 -6t-6.5 -16q0 -9 6.5 -15t15.5 -6h98q44 0 83.5 17t68.5 46t46 68t17 84q0 44 -16.5 83t-45.5 68t-67.5 46t-82.5 18v0zM526 765q-69 0 -121 -45.5t-61 -113.5q-2 -9 3.5 -16t14.5 -8q10 -2 17 4
t8 14q7 52 46.5 86.5t92.5 34.5q9 0 15 6.5t6 15.5t-6 15.5t-15 6.5zM627 139q-6 7 -15.5 7.5t-15.5 -5.5l-53 -47v269q0 9 -6.5 15.5t-15.5 6.5t-15 -6.5t-6 -15.5v-269l-53 47q-7 6 -16 5.5t-15 -7.5q-6 -6 -5.5 -15t7.5 -15l79 -71q5 -5 11.5 -7.5t12.5 -2.5q7 0 13 2.5
t11 7.5l80 71q7 6 7.5 15t-5.5 15v0z" />
    <glyph glyph-name="uniE925" unicode="&#xe925;" 
d="M512 694q-66 0 -124.5 -25t-102 -68.5t-69 -102t-25.5 -124.5q0 -67 25.5 -125t69 -101.5t102 -69t124.5 -25.5t124.5 25.5t102 69t68.5 101.5t25 125q0 66 -25 124.5t-68.5 102t-102 68.5t-124.5 25v0zM533 95v27q0 9 -6 15t-15 6t-15 -6t-6 -15v-27q-51 4 -96.5 25.5
t-80 56t-55.5 79.5t-25 97h27q8 0 14 6t6 15q0 8 -6 14t-14 6h-27q4 52 25 97t55.5 79.5t80 56t96.5 25.5v-27q0 -8 6 -14.5t15 -6.5t15 6.5t6 14.5v27q51 -4 96.5 -25.5t80 -56t55.5 -79.5t25 -97h-27q-8 0 -14 -6t-6 -14q0 -9 6 -15t14 -6h27q-4 -52 -25 -97t-55.5 -79.5
t-80 -56t-96.5 -25.5zM533 811v27h33q9 0 15 6t6 15v80q0 9 -6 15t-15 6h-108q-9 0 -15 -6t-6 -15v-80q0 -9 6 -15t15 -6h33v-27q-87 -4 -163 -40t-132.5 -95t-89 -136.5t-32.5 -165.5q0 -91 34.5 -170.5t94 -139t139 -94t170.5 -34.5t170.5 34.5t139 94t94 139t34.5 170.5
q0 88 -32.5 165.5t-89 136.5t-132.5 95t-163 40zM479 879v39h66v-39h-66v0zM512 -20q-81 0 -153 31t-125.5 84.5t-84.5 125t-31 153.5q0 81 31 153t84.5 125.5t125.5 84.5t153 31t153 -31t125.5 -84.5t84.5 -125.5t31 -153q0 -82 -31 -153.5t-84.5 -125t-125.5 -84.5
t-153 -31v0zM665 527q-5 4 -11.5 5t-11.5 -1l-190 -87h-1v0h-0.5h-0.5v-0.5t-1 -0.5v0v0q-1 0 -1 -0.5v-0.5h-1v0q-1 -1 -1.5 -2t-1.5 -1v-0.5v-0.5l-0.5 -0.5l-0.5 -0.5v0l-1 -1v0v0v-1v0l-1 -1v0l-86 -190q-3 -6 -1.5 -12.5t5.5 -10.5q3 -3 7 -4.5t8 -1.5q2 0 4 0.5t4 1.5
l190 86h1v0l0.5 0.5l0.5 0.5v0h1v0.5v0.5h1v0l1 1v0l1.5 1.5l1.5 1.5v0v0q0 1 0.5 1h0.5v0.5t1 0.5v0.5v0.5v0.5v0.5h1v0l86 190q3 6 1.5 12.5t-5.5 11.5v0zM416 277l51 113l61 -62zM557 358l-61 61l112 51z" />
    <glyph glyph-name="uniE926" unicode="&#xe926;" 
d="M939 609h-105v147q0 35 -25 60.5t-60 25.5h-664q-35 0 -60 -25.5t-25 -60.5v-383q0 -36 25 -61t60 -25h105v-147q0 -35 25 -60.5t60 -25.5h664q35 0 60 25.5t25 60.5v384q0 35 -25 60t-60 25v0zM49 756q0 15 10.5 26t25.5 11h664q15 0 25.5 -11t10.5 -26v-34h-736v34v0z
M190 524v-188h-105q-15 0 -25.5 10.5t-10.5 26.5v187h149q-4 -8 -6 -17.5t-2 -18.5zM49 609v64h736v-64h-510h-2.5h-2.5h-221v0zM939 103h-664q-15 0 -25.5 11t-10.5 26v384q0 14 9.5 24.5t23.5 11.5h538h1.5h1.5h126q15 0 25.5 -10.5t10.5 -25.5v-384v0q0 -15 -10.5 -26
t-25.5 -11zM680 449q-20 0 -39 -6.5t-34 -18.5q-16 12 -34.5 18.5t-39.5 6.5q-48 0 -82.5 -34.5t-34.5 -82.5q0 -49 34.5 -83.5t82.5 -34.5q21 0 39.5 6.5t34.5 19.5q15 -12 34 -19t39 -7q49 0 83.5 34.5t34.5 83.5q0 48 -34.5 82.5t-83.5 34.5v0zM576 278q-9 -8 -20 -11.5
t-23 -3.5q-28 0 -48.5 20t-20.5 49q0 28 20.5 48.5t48.5 20.5q12 0 23 -4t20 -11q-6 -12 -9.5 -26t-3.5 -28q0 -15 3.5 -28.5t9.5 -25.5zM680 263q-28 0 -48 20t-20 49q0 28 20 48.5t48 20.5q29 0 49 -20.5t20 -48.5q0 -29 -20 -49t-49 -20z" />
    <glyph glyph-name="uniE927" unicode="&#xe927;" 
d="M1008 943v0v1h-1v0q-12 12 -28 15t-31 -3l-912 -357q-19 -7 -28.5 -23t-7.5 -35q3 -20 16 -33t32 -16l446 -60q1 0 1.5 -0.5t0.5 -1.5l60 -446q3 -19 16 -32t33 -16h3h4q17 0 31 9.5t20 26.5l357 912q6 15 3 31t-15 28v0zM56 545q-1 1 -1.5 1t-0.5 1t0.5 1.5l0.5 0.5
l854 334l-400 -399q-1 0 -72 9.5t-155.5 21t-155 21l-70.5 9.5v0zM613 -9l-0.5 -0.5t-1.5 -0.5t-1 0.5t-1 1.5l-9.5 70.5t-21 155t-21 155.5t-9.5 72l399 400l-334 -854v0z" />
    <glyph glyph-name="uniE928" unicode="&#xe928;" 
d="M282 896q-23 31 -53 47.5t-64 16.5t-64.5 -16.5t-53.5 -47.5q-22 -29 -33.5 -67t-11.5 -79t11.5 -78.5t33.5 -67.5q13 -17 28.5 -30t32.5 -21l-35 -519q-1 -19 5.5 -37t19.5 -32t30.5 -21.5t36.5 -7.5t36.5 7.5t30.5 21.5t19.5 32t5.5 37l-35 519q17 8 32.5 21t27.5 30
q23 30 34.5 67.5t11.5 78.5t-11.5 79t-34.5 67v0zM198 -3q-7 -7 -15.5 -10.5t-17.5 -3.5q-10 0 -18.5 3.5t-14.5 10.5t-9.5 16t-2.5 18l34 510q3 0 5.5 -0.5t5.5 -0.5t5.5 0.5t5.5 0.5l34 -510q0 -9 -3 -18t-9 -16v0zM165 587q-6 0 -12.5 1t-12.5 3h-0.5t-1.5 1
q-38 12 -63.5 56t-25.5 102q0 68 34 115.5t82 47.5t82 -47.5t34 -115.5q0 -67 -34 -115t-82 -48v0zM1022 348v586v-1q1 4 0 8t-3 8q-5 8 -14.5 10.5t-17.5 -3.5q-36 -22 -64.5 -51.5t-48.5 -65t-30.5 -75.5t-10.5 -82v0v0v-308q0 -20 14.5 -34.5t34.5 -14.5v-318
q0 -29 20.5 -50t49.5 -21t49.5 21t20.5 50v341v0v0v0zM883 372q-1 0 -2 0.5t-1 1.5v308v0v0q0 61 25 115t70 93v-518h-92v0zM975 7q0 -10 -6.5 -17t-16.5 -7t-16.5 7t-6.5 17v318h46v-318zM666 960q-10 0 -17 -7t-7 -16v-267h-60v267q0 9 -6.5 16t-16.5 7t-17 -7t-7 -16
v-267h-60v267q0 9 -6.5 16t-16.5 7t-17 -7t-7 -16v-340q0 -29 20.5 -49.5t49.5 -20.5h4l-33 -495q-1 -19 5 -36.5t19 -31.5q13 -13 30 -20.5t36 -7.5q18 0 35.5 7.5t29.5 20.5q13 14 19.5 31.5t4.5 36.5l-33 495h5q28 0 48.5 20.5t20.5 49.5v340q0 9 -7 16t-16 7v0zM590 -3
q-6 -7 -14 -10.5t-17 -3.5t-17 3.5t-15 10.5q-6 6 -9 14.5t-2 17.5l33 498h19l34 -498q0 -9 -3 -17.5t-9 -14.5v0zM642 597q0 -10 -6.5 -16.5t-15.5 -6.5h-94v0v0h-28q-9 0 -16 6.5t-7 16.5v26h167v-26z" />
    <glyph glyph-name="uniE929" unicode="&#xe929;" 
d="M998 280q-11 0 -18.5 -7.5t-7.5 -18.5v-100q0 -43 -30.5 -73.5t-73.5 -30.5h-712q-43 0 -73.5 30.5t-30.5 73.5v100q0 11 -7.5 18.5t-18.5 7.5t-18.5 -7.5t-7.5 -18.5v-100q0 -64 46 -110t110 -46h712q64 0 110 46t46 110v100q0 11 -7.5 18.5t-18.5 7.5zM840 177h-656
q-10 0 -18 -7.5t-8 -18.5q0 -10 8 -18t18 -8h656q10 0 18 8t8 18q0 11 -8 18.5t-18 7.5zM776 544q-7 8 -18 8.5t-19 -6.5l-201 -179v505q0 11 -7.5 18.5t-18.5 7.5t-18.5 -7.5t-7.5 -18.5v-505l-201 179q-8 7 -19 6.5t-18 -8.5t-6.5 -18.5t8.5 -18.5l219 -195q9 -8 20 -12
t23 -4t23 4t20 12l219 195q8 8 8.5 18.5t-6.5 18.5v0z" />
    <glyph glyph-name="uniE92A" unicode="&#xe92a;" 
d="M795 803q11 0 18 7.5t7 17.5v78q0 22 -15.5 38t-38.5 16h-523q-5 0 -9.5 -2t-7.5 -5l-205 -205q-3 -3 -5 -8t-2 -9v-741q0 -22 16 -38t38 -16h698q23 0 38.5 16t15.5 38v377q0 11 -7 18t-18 7q-10 0 -17 -7t-7 -18v-377q0 -2 -1.5 -3.5t-3.5 -1.5h-698q-2 0 -3.5 1.5
t-1.5 3.5v716h151q22 0 38 16t16 38v151h498q2 0 3.5 -1.5t1.5 -3.5v-78q0 -10 7 -17.5t17 -7.5zM219 760q0 -2 -1.5 -3.5t-3.5 -1.5h-116l121 121v-116zM986 759l-29 29q-25 25 -59.5 25t-59.5 -25l-230 -231h-401q-10 0 -17.5 -7t-7.5 -17q0 -11 7.5 -18t17.5 -7h351
l-149 -149h-202q-10 0 -17.5 -7t-7.5 -17q0 -11 7.5 -18t17.5 -7h153v-1q-3 -2 -4.5 -4.5t-2.5 -5.5l-38 -138h-108q-10 0 -17.5 -7t-7.5 -18q0 -10 7.5 -17t17.5 -7h127h2.5h3.5l24.5 7t53.5 15t53.5 15l24.5 7q3 1 6 2.5t5 3.5l479 479q24 24 24 59t-24 59zM369 172l20 73
l53 -53zM489 214l-77 78l395 395l78 -77l-396 -396v0zM951 676l-31 -31l-78 77l31 31q10 10 24.5 10t24.5 -10l29 -29q10 -10 10 -24t-10 -24z" />
    <glyph glyph-name="uniE92B" unicode="&#xe92b;" 
d="M1023 707q0 21 -15 36.5t-37 15.5v0v0l-919 -1q-10 0 -19.5 -4t-17.5 -12q-7 -7 -11 -16.5t-4 -20.5l1 -516q0 -10 4 -19.5t11 -17.5q8 -7 17.5 -11t19.5 -4v0v0l919 1q21 0 36.5 15.5t15.5 37.5zM913 707l-401 -279l-402 277zM682 375l238 -184l-816 -2l239 186
q9 7 10 17.5t-5 19.5q-7 8 -17.5 9.5t-19.5 -4.5l-258 -200l-1 465l445 -308q4 -2 7.5 -3t7.5 -1t8 1t7 3l444 309l1 -466l-258 200q-9 6 -19.5 4.5t-17.5 -9.5q-7 -9 -5.5 -19.5t10.5 -17.5v0z" />
    <glyph glyph-name="uniE92C" unicode="&#xe92c;" 
d="M120 123h-65q-10 0 -17.5 -7.5t-7.5 -18.5q0 -10 7.5 -17.5t17.5 -7.5h65q11 0 18.5 7.5t7.5 17.5q0 11 -7.5 18.5t-18.5 7.5v0zM228 25q-7 8 -17.5 8t-17.5 -8l-46 -46q-8 -7 -8 -17.5t8 -18.5q3 -3 8 -5t9 -2q5 0 10 2t8 5l46 47q8 7 8 17.5t-8 17.5v0zM969 110h-443
l453 453q15 15 15 36t-15 36l-310 310q-15 15 -36 15t-35 -15l-496 -496q-22 -21 -33.5 -49t-11.5 -58t11.5 -58t33.5 -49l149 -150q13 -12 29 -18.5t34 -6.5h655q10 0 17.5 7t7.5 18q0 10 -7.5 17.5t-17.5 7.5v0zM314 110q-8 0 -15 3t-12 8l-150 150q-29 29 -29 71t29 72
l81 81l267 -267q4 -4 8.5 -5.5t9.5 -1.5t9.5 1.5t8.5 5.5q7 7 7 17.5t-7 18.5l-267 266l379 379l311 -310l-490 -489h-140v0z" />
    <glyph glyph-name="uniE92D" unicode="&#xe92d;" 
d="M1007 496q-43 55 -97.5 100t-117.5 76q-64 32 -132 48.5t-140 17.5h-8h-8q-72 -1 -140 -17.5t-132 -48.5q-63 -31 -117.5 -76t-97.5 -100q-17 -21 -17 -48t17 -48q43 -55 97.5 -100t117.5 -76q64 -32 132 -48.5t140 -17.5h8h8q72 1 140 17.5t132 48.5q63 31 117.5 76
t97.5 100q17 21 17 48t-17 48zM250 261q-58 29 -109 71t-92 93q-7 10 -7 23t7 23q41 51 92 93t109 71q17 8 34 15.5t34 13.5q-44 -40 -70 -96t-26 -120t26 -120t70 -96q-17 6 -34 13.5t-34 15.5v0zM512 199q-51 0 -96.5 20t-79 53.5t-53.5 79t-20 96.5t20 96.5t53.5 79
t79 53.5t96.5 20t96.5 -20t79 -53.5t53.5 -79t20 -96.5t-20 -96.5t-53.5 -79t-79 -53.5t-96.5 -20v0zM975 425q-41 -51 -92 -93t-109 -71q-17 -8 -34 -15.5t-34 -13.5q44 40 70 96t26 120t-26 120t-70 96q17 -6 34 -13.5t34 -15.5q58 -29 109 -71t92 -93q7 -10 7 -23t-7 -23
zM512 554q-44 0 -75 -31t-31 -75t31 -75t75 -31t75 31t31 75t-31 75t-75 31v0zM512 383q-27 0 -46 19t-19 46t19 46t46 19t46 -19t19 -46t-19 -46t-46 -19v0z" />
    <glyph glyph-name="uniE92E" unicode="&#xe92e;" 
d="M955 704q-25 44 -58.5 82t-73 68.5t-84.5 52.5t-95 35q-49 14 -99.5 17t-99.5 -3.5t-96.5 -22.5t-92.5 -42q-44 -25 -82 -58.5t-68.5 -73t-52.5 -84.5t-35 -95q-14 -49 -17 -99.5t3.5 -99.5t22.5 -96.5t42 -92.5q25 -44 58.5 -82t73 -68.5t84.5 -52.5t95 -35
q33 -9 66 -13.5t67 -4.5q66 0 131 17.5t124 51.5q44 25 82 58.5t68.5 73t52.5 84.5t35 95q14 49 17 99t-3.5 99.5t-22.5 97t-42 92.5v0zM955 329q-12 -44 -32 -84.5t-47 -76t-61 -65t-74 -52.5t-82.5 -37.5t-86.5 -20.5t-89 -3t-90 15q-44 12 -84.5 32t-76 47t-65 61
t-52.5 74t-37.5 82.5t-20.5 86.5t-3 89t15 90q12 44 32 84.5t47 76t61 65t74 52.5t82.5 37.5t86.5 20.5t89 3t90 -15q44 -12 84.5 -32t76 -47t65 -61t52.5 -74t37.5 -82.5t20.5 -86.5t3 -89t-15 -90zM851 490l-245 142q-12 6 -24.5 6t-24.5 -6q-11 -7 -17.5 -18t-6.5 -24
v-106q-2 2 -4 3.5t-4 2.5l-245 142q-12 6 -24.5 6t-24.5 -6q-11 -7 -17.5 -18t-6.5 -24v-284q0 -13 6.5 -24t17.5 -18q6 -3 12 -4.5t13 -1.5q6 0 12 1.5t12 4.5l245 142q2 1 4 2.5t4 3.5v-106q0 -13 6.5 -24t17.5 -18q6 -3 12 -4.5t13 -1.5q6 0 12 1.5t12 4.5l245 142
q12 7 18 18t6 24t-6 24t-18 18v0zM261 315v266l230 -133l-230 -133v0zM587 315v266l230 -133l-230 -133v0z" />
    <glyph glyph-name="uniE92F" unicode="&#xe92f;" 
d="M944 557q14 13 19 31.5t-1 37.5q-6 18 -21 30.5t-34 15.5l-224 32q-3 1 -6 3t-4 5l-100 203q-9 17 -25.5 27t-35.5 10t-35.5 -10t-25.5 -27l-100 -203q-1 -3 -4 -5t-6 -3l-224 -32q-19 -3 -33.5 -15.5t-20.5 -30.5q-6 -19 -1.5 -37.5t18.5 -31.5l162 -158q2 -3 3 -6t1 -6
l-39 -224q-3 -19 4 -36.5t23 -29.5q16 -11 35 -12.5t36 7.5l201 106q3 1 6 1t6 -1l201 -106q7 -4 15 -6t16 -2q11 0 21 3.5t19 9.5q16 12 23 29.5t4 36.5l-39 224q0 3 1 6t3 6l162 158v0zM725 377l38 -223q1 -5 -1 -8.5t-4 -4.5q-1 -1 -5 -2.5t-9 1.5l-201 105q-7 4 -15 6
t-16 2t-16 -2t-15 -6l-201 -105q-5 -3 -9 -1.5t-5 2.5q-2 1 -4 4.5t-1 8.5l38 223q3 17 -2.5 33t-17.5 27l-162 158q-4 4 -4 8t1 6q0 2 2.5 5t8.5 4l224 33q16 2 29.5 12t21.5 25l100 203q2 5 6 6t6 1t6 -1t6 -6v0l100 -203q8 -15 21.5 -25t29.5 -12l224 -33q6 -1 8.5 -4
t2.5 -5q1 -2 1 -6t-4 -8l-162 -158q-12 -11 -17.5 -27t-2.5 -33v0zM828 915q-9 6 -20.5 4.5t-17.5 -10.5l-29 -40q-6 -9 -4.5 -20t10.5 -17q4 -3 8 -4.5t8 -1.5q6 0 12 3t10 9l29 39q6 9 4.5 20t-10.5 18zM263 869l-29 40q-7 9 -18 10.5t-20 -4.5q-9 -7 -10.5 -18t4.5 -20
l29 -39q4 -6 10 -8.5t12 -2.5q4 0 8 1t8 4q9 6 10.5 17t-4.5 20zM99 346q-3 11 -13 16t-21 2l-46 -15q-11 -4 -16 -14t-2 -20q3 -9 10 -14t16 -5q2 0 4 0.5t4 0.5l47 15q10 4 15.5 14t1.5 20zM512 46q-11 0 -19 -7.5t-8 -19.5v-48q0 -12 8 -19.5t19 -7.5t19 7.5t8 19.5v48
q0 12 -8 19.5t-19 7.5v0zM1005 349l-46 15q-11 3 -21 -2t-13 -16q-4 -10 1.5 -20t15.5 -14l47 -15q2 0 4 -0.5t4 -0.5q9 0 16 5t10 14q3 10 -2 20t-16 14v0z" />
    <glyph glyph-name="uniE930" unicode="&#xe930;" 
d="M896 701q0 4 -2 8.5t-5 7.5l-236 236v0v0q-4 3 -8 5t-9 2h-457q-21 0 -36 -15t-15 -35v-924q0 -20 15 -35t36 -15h666q21 0 36 15t15 35v714v0v1v0zM660 878l154 -154h-144q-4 0 -7 3t-3 7v144v0zM848 -14q0 -1 -1 -1.5t-2 -0.5h-666q-1 0 -2 0.5t-1 1.5v924q0 1 1 1.5
t2 0.5h433v-178q0 -24 17 -41t41 -17h178v-690v0z" />
    <glyph glyph-name="uniE931" unicode="&#xe931;" 
d="M846 960h-546q-28 0 -47 -19.5t-19 -46.5v-56h-75q-19 0 -33 -13.5t-14 -33.5v-808q0 -20 14 -33.5t33 -13.5h584q20 0 33.5 13.5t13.5 33.5v75h56q27 0 46.5 19t19.5 46v771q0 27 -19.5 46.5t-46.5 19.5v0zM743 -17h-584v808h377v-153q0 -22 15.5 -38t37.5 -16h154v-601
v0zM583 758l126 -127h-120q-2 0 -4 2t-2 5v120v0zM846 105h-56v503v0v0q0 5 -2 9t-5 7l-207 207v0v0q-3 4 -7.5 5.5t-8.5 1.5h-279v56q0 8 5.5 13.5t13.5 5.5h546q8 0 13.5 -5.5t5.5 -13.5v-771v0q0 -7 -5.5 -12.5t-13.5 -5.5v0z" />
    <glyph glyph-name="uniE932" unicode="&#xe932;" 
d="M896 753q0 4 -2 8.5t-5 7.5l-184 184v0v0q-3 3 -7.5 5t-9.5 2h-509q-21 0 -36 -15t-15 -35v-924q0 -20 15 -35t36 -15h666q21 0 36 15t15 35v766v1v0v0zM712 878l102 -102h-99q-1 0 -2 1t-1 2v99zM848 -14q0 -1 -1 -1.5t-2 -0.5h-666q-1 0 -2 0.5t-1 1.5v924q0 1 1 1.5
t2 0.5h485v-133q0 -21 15 -35.5t36 -14.5h133v-743v0zM724 632h-424q-10 0 -17 -7t-7 -17t7 -17t17 -7h424q10 0 17 7t7 17t-7 17t-17 7zM724 487h-424q-10 0 -17 -7t-7 -17t7 -17t17 -7h424q10 0 17 7t7 17t-7 17t-17 7zM724 343h-424q-10 0 -17 -7t-7 -17t7 -17t17 -7h424
q10 0 17 7t7 17t-7 17t-17 7zM512 198h-212q-10 0 -17 -7t-7 -17t7 -17t17 -7h212q10 0 17 7t7 17t-7 17t-17 7z" />
    <glyph glyph-name="uniE933" unicode="&#xe933;" 
d="M724 632h-424q-10 0 -17 -7t-7 -17t7 -17t17 -7h424q10 0 17 7t7 17t-7 17t-17 7zM724 487h-424q-10 0 -17 -7t-7 -17t7 -17t17 -7h424q10 0 17 7t7 17t-7 17t-17 7v0zM896 753q0 5 -2 9t-5 7l-183 184q-4 3 -8.5 5t-9.5 2h-509q-21 0 -36 -15t-15 -35v-599v-0.5v-0.5
q0 -9 4.5 -17t12.5 -12l83 -52q20 -12 44 -12t44 12l57 36q9 5 19 5t19 -5l57 -36q10 -6 21.5 -9t22.5 -3t22.5 3t21.5 9l57 36q9 5 19 5t19 -5l57 -36q20 -12 44 -12t44 12l83 52q8 4 12.5 12t4.5 17v0.5v0.5v441v1v0v0zM712 878v0l102 -102h-99q-1 0 -2 1t-1 2v99z
M848 318l-77 -48q-9 -5 -19 -5t-19 5l-57 35q-20 13 -44 13t-44 -13l-57 -35q-9 -5 -19 -5t-19 5l-57 35q-20 13 -44 13t-44 -13l-57 -35q-9 -5 -19 -5t-19 5l-77 48v592q0 1 1 1.5t2 0.5h485v-133q0 -21 15 -35.5t36 -14.5h133v-411zM896 168v0v0v0v0q0 10 -5 18.5
t-14 13.5q-8 5 -18 4.5t-18 -5.5l-71 -44q-8 -5 -18 -5t-18 5l-59 36q-20 13 -43 13t-43 -13l-59 -36q-8 -5 -18 -5t-18 5l-59 36q-20 13 -43 13t-43 -13l-59 -36q-8 -5 -18 -5t-18 5l-71 44q-8 5 -18 5.5t-18 -4.5q-9 -5 -14 -13.5t-5 -18.5v0v0v0v0v-182q0 -20 15 -35
t36 -15h666q21 0 36 15t15 35v182v0zM845 -16h-666q-1 0 -2 0.5t-1 1.5v161l53 -33q20 -12 43 -12t43 12l59 37q8 5 18 5t18 -5l59 -37q10 -6 21 -9t22 -3t22 3t21 9l59 37q8 5 18 5t18 -5l59 -37q20 -12 43 -12t43 12l53 33v-161q0 -1 -1 -1.5t-2 -0.5v0z" />
    <glyph glyph-name="uniE934" unicode="&#xe934;" 
d="M960 868h-896q-27 0 -45.5 -18.5t-18.5 -44.5v-75q0 -27 18.5 -45.5t45.5 -18.5h29l330 -329v-288q0 -7 3.5 -12t9.5 -8q2 -1 4 -1h4q4 0 8 1.5t7 4.5l137 137q3 3 4.5 7t1.5 8v151l329 329h29q27 0 45.5 18.5t18.5 45.5v75q0 26 -18.5 44.5t-45.5 18.5zM566 361
q-3 -3 -4.5 -7t-1.5 -8v-151l-95 -95v246q0 4 -1.5 8t-4.5 7l-305 305h717l-305 -305v0zM982 730q0 -9 -6.5 -15t-15.5 -6h-896q-9 0 -15.5 6t-6.5 15v75q0 8 6.5 14.5t15.5 6.5h896q9 0 15.5 -6.5t6.5 -14.5v-75v0z" />
    <glyph glyph-name="uniE935" unicode="&#xe935;" 
d="M724 605l133 179q4 5 4.5 12t-2.5 13t-8.5 9.5t-12.5 3.5h-575v30q14 7 23.5 20.5t9.5 30.5q0 24 -16.5 40.5t-40.5 16.5q-23 0 -39.5 -16.5t-16.5 -40.5q0 -17 9 -30.5t24 -20.5v-869h-30q-10 0 -17 -7t-7 -16q0 -10 7 -17t17 -7h107q9 0 16 7t7 17q0 9 -7 16t-16 7h-30
v406h574q7 0 13 3.5t9 9.5t2 12.5t-5 11.5zM239 889q-6 0 -10 4.5t-4 9.5q0 6 4 10t10 4t10 -4t4 -10q0 -5 -4 -9.5t-10 -4.5zM263 436v78h75q10 0 17 7t7 17t-7 17t-17 7h-75v87h118q9 0 16 7t7 17q0 9 -7 16t-16 7h-118v79h528l-116 -156q-4 -6 -4 -14t4 -14l115 -155
h-527v0z" />
    <glyph glyph-name="uniE936" unicode="&#xe936;" 
d="M970 800h-386q-6 0 -11.5 2t-9.5 6l-71 61q-10 9 -23 13.5t-26 4.5h-254q-22 0 -38 -16t-16 -38v-72h-81q-22 0 -38 -15.5t-16 -37.5v-645q0 -22 16 -38t38 -16h781q22 0 38 16t16 38v72h81q22 0 38 15.5t16 37.5v558q0 22 -16 38t-38 16zM846 63q0 -5 -3 -8t-8 -3h-781
q-5 0 -8 3t-3 8v442h803v-442v0zM846 548h-803v160q0 4 3 7t8 3h254q5 0 10.5 -2t10.5 -6l71 -61q10 -9 22.5 -13.5t26.5 -4.5h386q5 0 8 -3t3 -8v-72zM981 188q0 -4 -3 -7t-8 -3h-81v442q0 23 -16 38.5t-38 15.5h-386q-6 0 -11.5 2t-9.5 6l-71 61q-10 9 -23 13.5t-26 4.5
h-130v72q0 5 3 8t8 3h254q6 0 11 -2t10 -6l71 -61q10 -9 22.5 -13.5t26.5 -4.5h386q5 0 8 -3.5t3 -7.5v-558v0zM537 300h-71v71q0 9 -6.5 15t-15.5 6q-8 0 -14.5 -6t-6.5 -15v-71h-71q-9 0 -15 -6.5t-6 -14.5q0 -9 6 -15.5t15 -6.5h71v-71q0 -9 6.5 -15t14.5 -6q9 0 15.5 6
t6.5 15v71h71q9 0 15 6.5t6 15.5q0 8 -6 14.5t-15 6.5z" />
    <glyph glyph-name="uniE937" unicode="&#xe937;" 
d="M970 800h-386q-6 0 -11.5 2t-9.5 6l-71 61q-10 9 -23 13.5t-26 4.5h-254q-22 0 -38 -16t-16 -38v-72h-81q-22 0 -38 -15.5t-16 -37.5v-645q0 -22 16 -38t38 -16h781q22 0 38 16t16 38v72h81q22 0 38 15.5t16 37.5v558q0 22 -16 38t-38 16zM846 63q0 -5 -3 -8t-8 -3h-781
q-5 0 -8 3t-3 8v442h803v-442v0zM846 548h-803v160q0 4 3 7t8 3h254q5 0 10.5 -2t10.5 -6l71 -61q10 -9 22.5 -13.5t26.5 -4.5h386q5 0 8 -3t3 -8v-72zM981 188q0 -4 -3 -7t-8 -3h-81v442q0 23 -16 38.5t-38 15.5h-386q-6 0 -11.5 2t-9.5 6l-71 61q-10 9 -23 13.5t-26 4.5
h-130v72q0 5 3 8t8 3h254q6 0 11 -2t10 -6l71 -61q10 -9 22.5 -13.5t26.5 -4.5h386q5 0 8 -3.5t3 -7.5v-558v0zM760 432h-129q-9 0 -15 -6.5t-6 -15.5t6 -15t15 -6h129q9 0 15.5 6t6.5 15t-6.5 15.5t-15.5 6.5zM760 328h-129q-9 0 -15 -6t-6 -15t6 -15.5t15 -6.5h129
q9 0 15.5 6.5t6.5 15.5t-6.5 15t-15.5 6z" />
    <glyph glyph-name="uniE938" unicode="&#xe938;" 
d="M1019 363l-66 234q-9 33 -31.5 60.5t-53.5 43.5q-32 16 -67 18t-68 -11q-24 -9 -44 -24.5t-35 -36.5v0v0h-283v0v0q-15 21 -35 36.5t-44 24.5q-33 13 -68 11t-67 -18q-31 -16 -53.5 -43.5t-31.5 -60.5l-66 -234q-16 -57 7 -107t74 -70q12 -4 25.5 -6.5t27.5 -2.5
q43 0 82.5 22.5t57.5 61.5l32 65q14 -19 36 -30.5t47 -11.5q34 0 61.5 20.5t37.5 52.5h37q10 -32 37.5 -52.5t61.5 -20.5q25 0 47 11.5t36 30.5l32 -65q12 -25 32 -44t45 -29q26 -11 53.5 -11t53.5 9q26 10 46.5 28.5t32.5 42.5q13 25 15.5 52.5t-4.5 53.5v0zM971 277
q-9 -18 -24 -31t-33 -20t-38 -7t-38 8q-18 7 -32.5 20.5t-22.5 31.5l-44 91q-4 8 -11 12t-15 4q-9 0 -15.5 -5t-9.5 -13q-6 -19 -22 -30t-36 -11q-22 0 -39.5 14t-21.5 35q-2 10 -9.5 16.5t-17.5 6.5h-59q-10 0 -17.5 -6.5t-9.5 -16.5q-4 -21 -21.5 -35t-39.5 -14
q-20 0 -36 11t-22 30q-3 8 -9.5 13t-15.5 5q-8 0 -15 -4t-11 -12l-44 -91q-17 -36 -59 -52t-82 -1q-35 13 -50.5 48.5t-3.5 77.5l65 233q8 26 24.5 46t39.5 32q14 7 28 10.5t29 3.5q11 0 22 -2t22 -6q18 -7 33 -18.5t26 -27.5q6 -8 15 -13t20 -5h283q11 0 20 5t15 13
q11 16 26 27.5t33 18.5q25 9 51 7.5t50 -13.5q23 -12 39.5 -32t24.5 -46l65 -233q5 -19 3 -38.5t-10 -36.5v0zM821 586q0 -11 -8 -19t-19 -8t-19 8t-8 19t8 18.5t19 7.5t19 -7.5t8 -18.5zM821 460q0 -11 -8 -19t-19 -8t-19 8t-8 19t8 18.5t19 7.5t19 -7.5t8 -18.5v0z
M758 523q0 -11 -8 -19t-19 -8t-19 8t-8 19t8 18.5t19 7.5t19 -7.5t8 -18.5zM883 523q0 -11 -7.5 -19t-18.5 -8t-19 8t-8 19t8 18.5t19 7.5t18.5 -7.5t7.5 -18.5zM294 544h-37v37q0 9 -6 15t-15 6t-15 -6t-6 -15v-37h-37q-9 0 -15 -6.5t-6 -14.5q0 -9 6 -15t15 -6h37v-38
q0 -8 6 -14.5t15 -6.5t15 6.5t6 14.5v38h37q9 0 15 6t6 15q0 8 -6 14.5t-15 6.5v0zM464 544h-23q-9 0 -15 -6.5t-6 -14.5q0 -9 6 -15t15 -6h23q9 0 15 6t6 15q0 8 -6 14.5t-15 6.5zM584 544h-23q-9 0 -15 -6.5t-6 -14.5q0 -9 6 -15t15 -6h23q9 0 15 6t6 15q0 8 -6 14.5
t-15 6.5zM395 431q-18 0 -30 -12.5t-12 -29.5q0 -18 12 -30.5t30 -12.5t30 12.5t12 30.5q0 17 -12 29.5t-30 12.5v0zM395 378q-4 0 -7.5 3t-3.5 8q0 4 3.5 7t7.5 3q5 0 8 -3t3 -7q0 -5 -3 -8t-8 -3zM630 431q-18 0 -30.5 -12.5t-12.5 -29.5q0 -18 12.5 -30.5t30.5 -12.5
q17 0 29.5 12.5t12.5 30.5q0 17 -12.5 29.5t-29.5 12.5zM630 378q-5 0 -8 3t-3 8q0 4 3 7t8 3q4 0 7.5 -3t3.5 -7q0 -5 -3.5 -8t-7.5 -3z" />
    <glyph glyph-name="uniE939" unicode="&#xe939;" 
d="M944 798q-40 41 -92.5 63t-110.5 22q-57 0 -109 -21.5t-92 -61.5l-27 -28l-28 28q-40 40 -92 61.5t-109 21.5t-109 -21.5t-92 -61.5t-61.5 -92t-21.5 -109t21.5 -108.5t61.5 -92.5l355 -355q16 -15 35 -22.5t40 -7.5q20 0 39 7.5t35 22.5l353 353q41 42 62 94t22 107
t-19 107t-61 94v0zM902 433l-352 -352q-16 -16 -37.5 -16t-37.5 16l-355 355q-32 32 -49.5 74.5t-17.5 88.5q0 47 17.5 89t49.5 75q33 33 75.5 50.5t88.5 17.5t88.5 -17.5t75.5 -50.5l27 -28l-42 -42q-8 -8 -8 -19t8 -19q4 -3 8.5 -5t9.5 -2q6 0 10.5 2t8.5 5l107 108
q33 33 75.5 50.5t88.5 17.5q47 0 90 -18t76 -52t49 -76.5t15.5 -87t-18 -87.5t-51.5 -77v0zM933 611q-3 35 -17 67t-39 57q-18 18 -39.5 30.5t-44.5 18.5q-11 3 -20.5 -2.5t-12.5 -15.5q-3 -11 2.5 -20t16.5 -12q17 -5 32.5 -14t28.5 -22q18 -18 28.5 -41.5t11.5 -48.5
q1 -11 8.5 -18t17.5 -7h1.5h0.5q11 1 18 9t7 19v0z" />
    <glyph glyph-name="uniE93A" unicode="&#xe93a;" 
d="M1013 544l-485 355q-7 5 -16 5t-16 -5l-485 -355q-9 -7 -10.5 -17.5t4.5 -19.5q7 -9 17.5 -11t19.5 5l470 344l470 -344q3 -3 7 -4t8 -1q7 0 12.5 2.5t9.5 8.5q6 9 4.5 19.5t-10.5 17.5v0zM884 495q-11 0 -18.5 -8t-7.5 -19v-423h-213v231q0 55 -39 94t-94 39t-94 -39
t-39 -94v-231h-213v423q0 11 -7.5 19t-18.5 8q-12 0 -19.5 -8t-7.5 -19v-450q0 -11 7.5 -18.5t19.5 -7.5h266q10 0 17.5 7t8.5 17v1.5v0.5v258q0 33 23.5 56.5t56.5 23.5t56.5 -23.5t23.5 -56.5v-258v-0.5v-1.5q1 -10 8.5 -17t17.5 -7h266q12 0 19.5 7.5t7.5 18.5v450
q0 11 -7.5 19t-19.5 8v0z" />
    <glyph glyph-name="uniE93B" unicode="&#xe93b;" 
d="M959 782h-894q-27 0 -46 -19.5t-19 -45.5v-538q0 -26 19 -45.5t46 -19.5h894q27 0 46 19.5t19 45.5v538q0 26 -19 45.5t-46 19.5zM981 179q0 -9 -6.5 -15t-15.5 -6h-894q-9 0 -15.5 6t-6.5 15v538q0 9 6.5 15t15.5 6h894q9 0 15.5 -6t6.5 -15v-538zM844 591h-233
q-9 0 -15.5 -6.5t-6.5 -15.5t6.5 -15t15.5 -6h233q9 0 15.5 6t6.5 15t-6.5 15.5t-15.5 6.5zM844 470h-233q-9 0 -15.5 -6.5t-6.5 -15.5t6.5 -15.5t15.5 -6.5h233q9 0 15.5 6.5t6.5 15.5t-6.5 15.5t-15.5 6.5v0zM844 348h-233q-9 0 -15.5 -6t-6.5 -15t6.5 -15.5t15.5 -6.5
h233q9 0 15.5 6.5t6.5 15.5t-6.5 15t-15.5 6zM401 380l-21 4.5t-29 36.5q10 9 19 20.5t16 25.5h0.5h1.5q4 0 8 2t7 6q14 17 21 39t6 46q-2 50 -32 84.5t-73 34.5h-2h-2v0v0q-10 4 -21 6.5t-22 1.5q-24 -1 -45 -12t-37 -32q-15 -20 -23 -45t-7 -52q0 -5 0.5 -9t1.5 -8
q1 -12 4.5 -23t7.5 -21q2 -5 6.5 -8t10.5 -4q1 0 2.5 0.5t3.5 0.5q6 -16 16 -29.5t22 -23.5q-8 -32 -29.5 -36.5l-21.5 -4.5q-32 -2 -54.5 -25t-22.5 -55v-79q0 -9 5.5 -14.5t13.5 -5.5h327q8 0 14 5.5t6 14.5v79q0 32 -22.5 55t-55.5 25v0zM207 532q0 1 -0.5 1.5l-0.5 0.5
q0 3 -0.5 6.5t-0.5 6.5q0 20 5.5 38.5t16.5 33.5q10 14 24 21.5t28 7.5q1 0 10.5 -0.5t19.5 -5.5q2 -2 4.5 -2h4.5h4h3q26 0 45.5 -24t20.5 -57v-7.5t-1 -7.5q-9 17 -23.5 29.5t-31.5 19.5q-3 2 -7 2t-8 -2t-6.5 -4.5t-4.5 -6.5q-1 -3 -2.5 -6t-2.5 -6q-4 -7 -11.5 -10.5
t-16.5 -3.5h-3h-4q-8 0 -16.5 -2t-16.5 -5t-15.5 -7t-13.5 -10v0zM234 504q4 3 8 5l8 4q7 3 15.5 3.5t9.5 0.5q19 -1 35 7.5t26 23.5q8 -6 14 -13.5t10 -16.5q-4 -33 -22.5 -55.5t-41.5 -22.5q-21 0 -38 18t-24 46v0zM277 403q4 -1 9 -1.5t10 -0.5t9.5 0.5t9.5 1.5
q4 -15 13.5 -27.5t23.5 -20.5q-7 -17 -22 -28t-34 -11t-34.5 11t-21.5 28q13 8 22.5 20.5t14.5 27.5v0zM152 240v60q0 17 12 28.5t29 11.5l4 0.5t6 0.5q11 -28 36 -46t57 -18q31 0 56.5 18t35.5 46q3 0 7 -0.5l4 -0.5q17 0 29 -11.5t12 -28.5v-60h-288v0z" />
    <glyph glyph-name="uniE93C" unicode="&#xe93c;" 
d="M115 628h-90q-10 0 -17 -7.5t-7 -17.5t7 -17.5t17 -7.5h90q10 0 17 7.5t7 17.5t-7 17.5t-17 7.5zM999 628h-90q-10 0 -17 -7.5t-7 -17.5t7 -17.5t17 -7.5h90q10 0 17 7.5t7 17.5t-7 17.5t-17 7.5zM217 308q-8 7 -18 7t-17 -7l-65 -65q-7 -7 -7 -17.5t7 -17.5q3 -4 8 -6
t9 -2q5 0 9.5 2t8.5 6l65 65q7 7 7 17t-7 18zM862 953q-7 7 -17.5 7t-17.5 -7l-63 -63q-8 -8 -8 -18t8 -17q3 -4 7.5 -6t9.5 -2t9.5 2t8.5 6l63 63q7 7 7 17t-7 18zM260 890l-63 63q-7 7 -17.5 7t-17.5 -7q-7 -8 -7 -18t7 -17l63 -63q4 -4 8.5 -6t9.5 -2q4 0 9 2t8 6
q7 7 7 17t-7 18zM907 243l-64 64q-8 8 -18 8t-17 -8q-8 -7 -8 -17t8 -18l64 -64q4 -4 8.5 -6t9.5 -2q4 0 9 2t8 6q7 7 7 17.5t-7 17.5v0zM512 893q-64 0 -120.5 -25.5t-99 -70t-67 -103.5t-24.5 -126q0 -63 21.5 -127t60.5 -119q30 -42 45.5 -88t15.5 -93v-155
q0 -21 14.5 -35.5t35.5 -14.5h236q21 0 35.5 14.5t14.5 35.5v155q0 47 15.5 93t45.5 88q39 55 60.5 119t21.5 127q0 67 -24.5 126t-67 103.5t-99 70t-120.5 25.5v0zM630 -14h-236v32h118q10 0 17.5 7t7.5 18q0 10 -7.5 17t-17.5 7h-118v33h236v-114v0v0v0zM477 448l-33 70
h136l-33 -70q-1 -2 -1.5 -4.5t-1.5 -4.5l-19 -290h-26l-19 290q-1 2 -1.5 4.5t-1.5 4.5v0zM700 351q-33 -47 -50.5 -98t-19.5 -104h-55l19 282l47 102q3 6 2.5 12t-3.5 12q-4 5 -9.5 8t-11.5 3h-214q-6 0 -11.5 -3t-9.5 -8q-3 -6 -3.5 -12t2.5 -12l47 -102l19 -282h-55
q-2 53 -19.5 104t-50.5 98q-35 47 -54 105t-19 112q0 57 20.5 107t56 87.5t83 59t101.5 21.5t101.5 -21.5t83 -59t56 -87.5t20.5 -107q0 -54 -19 -112t-54 -105v0z" />
    <glyph glyph-name="uniE93D" unicode="&#xe93d;" 
d="M979 870h-934q-18 0 -31.5 -13t-13.5 -32v-754q0 -19 13.5 -32t31.5 -13h934q18 0 31.5 13t13.5 32v754q0 19 -13.5 32t-31.5 13zM979 71h-934v0v0v754h934v-754zM894 763h-764q-9 0 -16 -6.5t-7 -16.5v-499q0 -10 7 -16.5t16 -6.5h764q9 0 16 6.5t7 16.5v499
q0 10 -7 16.5t-16 6.5zM153 718h718v-383l-142 142q-7 7 -16 7t-16 -7l-87 -86l-199 199q-7 6 -16 6t-16 -6l-226 -227v355v0zM153 263v36l242 243l278 -279h-520v0zM871 263h-134l-95 96l71 70l153 -153q1 -1 2.5 -2t2.5 -2v-9v0zM609 675q-36 0 -61 -25t-25 -61
q0 -35 25 -60t61 -25q35 0 60 25t25 60q0 36 -25 61t-60 25zM609 549q-17 0 -29 12t-12 28q0 17 12 29t29 12q16 0 28 -12t12 -29q0 -16 -12 -28t-28 -12zM327 167h-197q-9 0 -16 -6.5t-7 -16.5q0 -9 7 -15.5t16 -6.5h197q9 0 15.5 6.5t6.5 15.5q0 10 -6.5 16.5t-15.5 6.5z
M481 167h-51q-10 0 -16.5 -6.5t-6.5 -16.5q0 -9 6.5 -15.5t16.5 -6.5h51q10 0 16.5 6.5t6.5 15.5q0 10 -6.5 16.5t-16.5 6.5z" />
    <glyph glyph-name="uniE93E" unicode="&#xe93e;" 
d="M625 295h-226q-13 0 -22 -9.5t-9 -21.5v-70q0 -12 9 -21t22 -9h226q13 0 22 9t9 21v70q0 12 -9 21.5t-22 9.5zM616 203h-208v52h208v-52zM1014 466v0l-149 294q-9 18 -25.5 28.5t-36.5 10.5h-29v27q0 9 -5.5 14.5t-13.5 5.5h-486q-8 0 -13.5 -5.5t-5.5 -14.5v-27h-29
q-20 0 -36.5 -10.5t-25.5 -28.5l-149 -294v0q-5 -8 -7.5 -17t-2.5 -19v-311q0 -28 20.5 -48.5t49.5 -20.5h884q29 0 49.5 20.5t20.5 48.5v311q0 10 -2.5 19t-7.5 17v0zM774 755h29q7 0 13.5 -4t9.5 -10l122 -241h-83v74q0 8 -6 14t-14 6h-24v106q0 8 -6 14t-14 6h-27v35z
M825 554v-54h-104q-14 0 -25 -7.5t-17 -19.5l-29 -64l-0.5 -0.5l-0.5 -0.5h-274l-0.5 0.5l-0.5 0.5l-29 64q-6 12 -17 19.5t-25 7.5h-104v54h626v0zM289 807h446v-87h-446v87v0zM781 680v-86h-538v86h538zM198 741q3 6 9.5 10t13.5 4h29v-35h-27q-8 0 -14 -6t-6 -14v-106
h-24q-8 0 -14 -6t-6 -14v-74h-83l122 241v0zM954 94h-884q-11 0 -18.5 7.5t-7.5 17.5v311q0 11 7.5 18.5t18.5 7.5h233q1 0 1.5 -0.5l0.5 -0.5l28 -64q6 -12 17.5 -19.5t24.5 -7.5h274q13 0 24.5 7.5t17.5 19.5l28 64l0.5 0.5t1.5 0.5h233q11 0 18.5 -7.5t7.5 -18.5v-311v0
q0 -10 -7.5 -17.5t-18.5 -7.5v0z" />
    <glyph glyph-name="uniE93F" unicode="&#xe93f;" 
d="M627 745q-15 17 -37.5 26t-47.5 9q-46 0 -81.5 -27t-39.5 -65q-2 -18 3 -34.5t17 -29.5q15 -17 37 -26t47 -9q47 0 82.5 27t39.5 66q2 17 -3 33.5t-17 29.5zM598 688q-2 -20 -23.5 -35t-49.5 -15q-15 0 -27.5 5t-19.5 13q-5 6 -7 12.5t-2 13.5q3 20 24.5 34.5t48.5 14.5
q15 0 27.5 -5t20.5 -13q3 -4 6 -10.5t2 -14.5v0zM604 221q-5 3 -11.5 17t2.5 64q0 1 1 5t2 10q3 14 8.5 39.5t11.5 54.5v0.5v0.5q6 32 1.5 59.5t-20.5 48.5q-15 19 -37 30.5t-49 13.5q-40 3 -76.5 -16t-49.5 -43q-6 -10 -4.5 -18t3.5 -12q3 -6 6.5 -9t6.5 -5q5 -3 11 -17
t-4 -64l-11 -55l-12 -60v0v0q-5 -32 0.5 -60t22.5 -48q27 -33 59 -37.5t34 -4.5q38 0 72 20t45 42q6 11 4.5 19t-3.5 12q-3 5 -7 8t-6 5v0zM570 421q-6 -29 -11.5 -54t-8.5 -40q-2 -9 -3 -12t-1 -4v0v-1q-9 -53 -2 -80t20 -40q-3 -3 -8 -6.5t-12 -7.5q-12 -6 -25 -9t-24 -3
q-17 1 -30 7t-21 17q-10 12 -13 29.5t1 38.5q2 11 11.5 61t10.5 53v0v0q11 54 4.5 81t-19.5 40q4 4 9 7t11 6q13 6 26 9t24 2q17 -1 29.5 -7.5t20.5 -17.5q10 -12 12.5 -29.5t-1.5 -39.5v0zM919 170q51 61 78 134t27 150q0 47 -10 92.5t-29 87.5t-47 80.5t-65 71.5
q-36 33 -78 58.5t-87.5 43t-95 26t-100.5 8.5t-100.5 -8.5t-95 -26t-87.5 -43t-78 -58.5q-37 -33 -65 -71.5t-47 -80.5t-29 -87.5t-10 -92.5t10 -92.5t29 -87.5t47 -80.5t65 -71.5q36 -33 78 -58.5t87.5 -42.5t95 -26t100.5 -9q64 0 126 14t118 42l178 -67q2 -1 4.5 -1h4.5
q4 0 8.5 1.5t7.5 4.5q6 5 7.5 11.5t-0.5 13.5l-47 165v0zM763 92q-5 2 -10.5 1.5t-9.5 -2.5q-53 -28 -111.5 -42t-119.5 -14q-96 0 -180 33t-147 90t-99.5 133t-36.5 163t36.5 163t99.5 133t147 90t180 33t180 -33t147 -90t99.5 -133t36.5 -163q0 -72 -26 -138.5t-75 -123.5
q-5 -4 -6 -10.5t0 -12.5l38 -131l-143 54v0z" />
    <glyph glyph-name="uniE940" unicode="&#xe940;" 
d="M670 960q-72 0 -135 -27t-110 -74t-74 -110.5t-27 -134.5q0 -32 5.5 -63t16.5 -60l-331 -331q-3 -3 -5 -8t-2 -10v-181q0 -10 7.5 -17.5t17.5 -7.5h149q5 0 10 2t8 5l51 51q3 3 5 7.5t2 9.5v62h62q10 0 17.5 7.5t7.5 17.5v25h25q10 0 17.5 7.5t7.5 17.5v55h54
q5 0 9.5 1.5t8.5 5.5l80 80q29 -11 60 -16.5t63 -5.5q72 0 135 27t110 74t74 110t27 135q0 71 -27 134.5t-74 110.5t-110 74t-135 27v0zM670 318q-31 0 -61 6.5t-58 18.5q-7 3 -14.5 1.5t-12.5 -6.5h-1v0l-84 -85h-69q-11 0 -18.5 -7.5t-7.5 -17.5v-54h-24q-11 0 -18.5 -7.5
t-7.5 -18.5v-24h-61q-11 0 -18.5 -7.5t-7.5 -18.5v-76l-35 -36h-114v36l309 308q6 7 6 16.5t-6 15.5q-7 7 -16.5 7t-15.5 -7l-277 -276v46l336 335v0v0q5 6 6.5 13.5t-1.5 14.5q-12 28 -18.5 58t-6.5 61q0 61 23.5 115t63.5 94t94 63.5t115 23.5t115 -23.5t94 -63.5
t63.5 -94t23.5 -115t-23.5 -115t-63.5 -94t-94 -63.5t-115 -23.5v0zM775 814q-39 0 -66.5 -28t-27.5 -67t27.5 -66.5t66.5 -27.5t67 27.5t28 66.5t-28 67t-67 28zM775 675q-18 0 -31 13t-13 31t13 31t31 13t31 -13t13 -31t-13 -31t-31 -13z" />
    <glyph glyph-name="uniE941" unicode="&#xe941;" 
d="M846 695h-668q-9 0 -15.5 -6.5t-6.5 -15.5v-333q0 -9 6.5 -15.5t15.5 -6.5t15.5 6.5t6.5 15.5v311h624v-311q0 -9 6.5 -15.5t15.5 -6.5t15.5 6.5t6.5 15.5v333q0 9 -6.5 15.5t-15.5 6.5v0zM1004 262h-40v462q0 28 -19.5 47.5t-47.5 19.5h-770q-28 0 -47.5 -19.5
t-19.5 -47.5v-462h-40q-8 0 -14 -6t-6 -14v-39q0 -41 28.5 -69.5t69.5 -28.5h828q41 0 69.5 28.5t28.5 69.5v39q0 8 -6 14t-14 6v0zM104 724q0 10 7 16.5t16 6.5h770q9 0 15.5 -6.5t6.5 -16.5v-462h-298q-1 0 -2 -0.5t-2 -0.5q-7 -1 -11.5 -6.5t-4.5 -12.5q0 -13 -9 -22
t-22 -9h-116q-13 0 -22 9t-9 22q0 8 -6 14t-14 6h-299v462v0zM984 203v0q0 -24 -17 -41t-41 -17h-828q-24 0 -41 17t-17 41v19h346q7 -22 25.5 -36t42.5 -14h116q24 0 42.5 14t25.5 36h346v-19v0zM545 567q-7 7 -16 7t-16 -7l-138 -139q-7 -6 -7 -15t7 -16q3 -3 7 -4.5
t8 -1.5q5 0 9 1.5t7 4.5l139 139q6 6 6 15.5t-6 15.5v0zM627 487q-7 6 -16 6t-15 -6l-56 -55q-6 -7 -6 -16t6 -16q4 -3 8 -4.5t8 -1.5t8 1.5t8 4.5l55 56q6 6 6 15t-6 16v0z" />
    <glyph glyph-name="uniE942" unicode="&#xe942;" 
d="M1024 448q0 16 -8.5 30t-22.5 21l-77 38l77 38v0v0q14 7 22.5 21t8.5 30t-8.5 29.5t-22.5 21.5l-431 215q-23 12 -50 12t-50 -12l-431 -215q-14 -8 -22.5 -21.5t-8.5 -29.5t8.5 -30t22.5 -21l77 -38l-77 -38q-14 -7 -22.5 -21t-8.5 -30t8.5 -30t22.5 -21l77 -38l-77 -38
q-14 -7 -22.5 -21t-8.5 -30t8.5 -29.5t22.5 -21.5l431 -215q12 -6 24.5 -9t25.5 -3t25.5 3t24.5 9l431 215q14 8 22.5 21.5t8.5 29.5t-8.5 30t-22.5 21l-77 38l77 38q14 7 22.5 21t8.5 30v0zM52 617q-3 2 -4 4.5t-1 4.5t1 4.5t4 4.5l431 215q7 3 14 5t15 2t15 -2t14 -5
l431 -215q3 -2 4 -4.5t1 -4.5t-1 -4.5t-4 -4.5l-431 -215q-14 -7 -29 -7t-29 7l-431 215v0zM972 279q3 -2 4 -4.5t1 -4.5t-1 -4.5t-4 -4.5l-431 -215q-14 -7 -29 -7t-29 7l-431 215q-3 2 -4 4.5t-1 4.5t1 4.5t4 4.5l108 54l302 -151q12 -6 24.5 -9t25.5 -3t25.5 3t24.5 9
l302 151l108 -54v0zM972 439l-431 -215q-14 -7 -29 -7t-29 7l-431 215q-3 2 -4 4.5t-1 4.5t1 4.5t4 4.5l108 54l302 -151q12 -6 24.5 -9t25.5 -3t25.5 3t24.5 9l302 151l108 -54q3 -2 4 -4.5t1 -4.5t-1 -4.5t-4 -4.5z" />
    <glyph glyph-name="uniE943" unicode="&#xe943;" 
d="M255 171q0 -15 -10 -25t-25 -10q-14 0 -24 10t-10 25q0 14 10 24t24 10q15 0 25 -10t10 -24v0zM1003 357q0 13 -3.5 25t-10.5 21q16 11 25.5 28.5t9.5 38.5q0 34 -24 57.5t-57 23.5h-214l14 30q15 34 22.5 69t7.5 71v30v30q0 34 -24.5 58.5t-58.5 24.5q-26 0 -47 -14
t-31 -38q0 -1 -10 -29.5l-10 -28.5q-13 -39 -36 -72t-54 -59l-99 -83h-57v26q0 21 -14.5 35.5t-35.5 14.5h-246q-21 0 -35.5 -14.5t-14.5 -35.5v-485q0 -20 14.5 -34.5t35.5 -14.5h246q21 0 35.5 14.5t14.5 34.5v39h31l31 -15q56 -26 116 -40t121 -14h236q33 0 57 24t24 57
q0 13 -4 24.5t-11 21.5q16 11 25.5 28.5t9.5 38.5q0 13 -3.5 24.5t-10.5 21.5q16 11 25.5 28.5t9.5 37.5v0zM296 81h-246v485h246v-485v0v0zM943 439h-36q-10 0 -17 -7.5t-7 -17.5q0 -11 7 -18t17 -7h15q13 0 22 -9.5t9 -22.5t-9 -22t-22 -9h-35q-11 0 -18 -7.5t-7 -17.5
t7 -17.5t18 -7.5h14q13 0 22.5 -9t9.5 -22t-9.5 -22.5t-22.5 -9.5h-35q-10 0 -17.5 -7t-7.5 -17q0 -11 7.5 -18t17.5 -7h15q13 0 22 -9.5t9 -22.5t-9 -22t-22 -9h-236q-55 0 -110 12.5t-105 36.5l-36 18q-3 1 -5.5 1.5t-5.5 0.5h-37v321h66q5 0 9 1.5t7 3.5l106 89
q37 30 63.5 69t41.5 83l10 29l10 29q4 9 12.5 14.5t18.5 5.5q14 0 23.5 -10t9.5 -24v-29.5v-29.5q0 -32 -6.5 -62t-18.5 -58l-29 -65q-2 -5 -2.5 -9t0.5 -9q1 0 6 -9t18 -9h252q13 0 22 -9t9 -22t-9 -22t-22 -9v0z" />
    <glyph glyph-name="uniE944" unicode="&#xe944;" 
d="M915 691q-45 0 -76.5 -32t-31.5 -77q0 -16 4.5 -31.5t12.5 -27.5l-117 -118q-13 9 -28 13.5t-32 4.5t-32.5 -5t-28.5 -14l-118 119q8 12 12.5 27.5t4.5 31.5q0 45 -31.5 77t-76.5 32t-77 -32t-32 -77q0 -16 4.5 -31.5t12.5 -27.5l-117 -118q-13 9 -28 13.5t-31 4.5
q-45 0 -77 -32t-32 -77t32 -77t77 -32t76.5 32t31.5 77q0 16 -4.5 31.5t-12.5 27.5l117 118q13 -9 28 -13.5t32 -4.5q16 0 31 4.5t28 13.5l119 -119q-8 -13 -12 -27.5t-4 -30.5q0 -45 31.5 -77t76.5 -32t77 32t32 77q0 16 -4.5 31.5t-12.5 27.5l117 118q13 -9 28 -13.5
t31 -4.5q45 0 77 32t32 77t-32 77t-77 32v0zM109 250q-27 0 -45.5 19t-18.5 45t18.5 45t45.5 19q26 0 45 -19t19 -45t-19 -45t-45 -19zM377 518q-27 0 -45.5 19t-18.5 45t18.5 45t45.5 19q26 0 44.5 -19t18.5 -45t-18.5 -45t-44.5 -19zM647 250q-26 0 -44.5 19t-18.5 45
t18.5 45t44.5 19q27 0 45.5 -19t18.5 -45t-18.5 -45t-45.5 -19v0zM915 518q-26 0 -45 19t-19 45t19 45t45 19q27 0 45.5 -19t18.5 -45t-18.5 -45t-45.5 -19v0zM354 415q-7 6 -16.5 6t-15.5 -6l-46 -46q-7 -7 -7 -16t7 -16q3 -3 7.5 -5t8.5 -2t8.5 2t7.5 5l46 46q6 6 6 15.5
t-6 16.5zM748 558q-7 7 -16 7t-16 -7l-46 -46q-6 -6 -6 -15.5t6 -15.5q4 -4 8 -5.5t8 -1.5q5 0 9 1.5t7 5.5l46 45q7 7 7 16.5t-7 15.5z" />
    <glyph glyph-name="uniE945" unicode="&#xe945;" 
d="M915 851q-54 55 -122.5 82t-140 27t-140 -27t-122.5 -82q-53 -52 -81 -120t-28 -142q0 -68 23.5 -130.5t67.5 -113.5l-44 -44l-45 45q-4 4 -9 6t-10 2t-10 -2t-9 -6l-211 -211q-16 -17 -25 -38t-9 -44q0 -24 9 -45t25 -38q17 -16 38 -25t44 -9q24 0 45 9t38 25l211 211
q4 4 6 9t2 10t-2 10t-6 9l-45 45l44 44q52 -45 115 -68t129 -23q71 0 139.5 27.5t122.5 81.5q53 53 81 120.5t28 142.5q0 74 -28 142t-81 120v0zM162 7q-10 -9 -21.5 -13.5t-24.5 -4.5q-12 0 -24 4.5t-21 13.5t-13.5 21t-4.5 25q0 12 4.5 24t13.5 21l118 117l90 -90
l-117 -118v0zM317 163l-91 90l38 37l90 -90zM878 363q-47 -46 -105.5 -69.5t-120 -23.5t-120 23.5t-105.5 69.5q-45 45 -69 103.5t-24 122.5q0 63 24 121.5t69 103.5q47 47 105.5 70t120.5 23q61 0 119.5 -23t105.5 -70q45 -45 69 -103.5t24 -121.5q0 -64 -24 -122.5
t-69 -103.5v0zM834 771q-37 37 -84.5 56t-97 19t-97 -19t-84.5 -56q-38 -38 -57 -85.5t-19 -97t19 -97t57 -84.5q37 -38 84.5 -57t97.5 -19q49 0 96.5 19t84.5 57v0q38 37 57 84.5t19 97t-19 97t-57 85.5v0zM797 444q-30 -30 -67.5 -45t-77 -15t-77 15t-67.5 45t-45 67.5
t-15 77t15 77t45 67.5t67.5 45t77.5 15q39 0 76.5 -15t67.5 -45t45 -67.5t15 -77t-15 -77t-45 -67.5zM751 687q-41 40 -98.5 40t-98.5 -40q-7 -8 -7 -19t7 -19q8 -7 19 -7t19 7q25 26 60.5 26t60.5 -26q4 -3 9 -5t10 -2t10 2t9 5q7 8 7 19t-7 19z" />
    <glyph glyph-name="uniE946" unicode="&#xe946;" 
d="M1023 550q0 9 -3.5 17.5t-9.5 14.5q-7 7 -15.5 10.5t-17.5 3.5v0v0l-931 -1q-9 0 -17.5 -3.5t-15.5 -10.5q-6 -6 -9.5 -14.5t-3.5 -18.5l1 -526q0 -19 13.5 -32.5t32.5 -13.5v0v0l931 2q9 0 17.5 3.5t15.5 9.5q6 7 9.5 15t3.5 18l-1 526v0zM927 550l-415 -288l-415 287
l830 1v0zM685 215l247 -191l-841 -2l249 193q7 6 8.5 15.5t-4.5 17.5q-6 7 -15.5 8.5t-16.5 -4.5l-265 -206l-1 482l453 -313q3 -2 6.5 -3.5t6.5 -1.5q4 0 7 1.5t6 3.5l452 314l1 -483l-265 206q-7 6 -16.5 4.5t-15.5 -8.5q-6 -8 -5 -17.5t9 -15.5v0zM621 835l-84 75
q-11 10 -25 10t-25 -10l-84 -75q-7 -6 -7.5 -15.5t5.5 -16.5q7 -7 16.5 -7.5t16.5 5.5l55 49v-177q0 -9 6.5 -16t16.5 -7t16.5 7t6.5 16v177l55 -49q4 -3 8 -4.5t8 -1.5t8.5 2t8.5 6q6 7 5.5 16.5t-7.5 15.5z" />
    <glyph glyph-name="uniE947" unicode="&#xe947;" 
d="M145 766q-25 0 -42 -17.5t-17 -41.5q0 -25 17 -42.5t42 -17.5q24 0 41.5 17.5t17.5 42.5q0 24 -17.5 41.5t-41.5 17.5zM145 690q-7 0 -12 5t-5 12t5 11.5t12 4.5t11.5 -4.5t4.5 -11.5t-4.5 -12t-11.5 -5zM984 585v150q0 22 -15.5 37.5t-37.5 15.5h-667q-3 6 -7.5 11.5
t-9.5 10.5q-21 20 -48 31t-56 10q-59 0 -101 -42.5t-42 -100.5q0 -18 4 -35t12 -32q0 -1 17.5 -29.5l17.5 -28.5v-485q0 -22 15.5 -37.5t36.5 -15.5l828 -1q22 0 37.5 16t15.5 37v280l12 20.5t12 21.5q8 15 12 31.5t4 33.5q0 29 -10.5 54.5t-29.5 46.5v0zM838 746l-103 -103
l-103 103h206v0zM708 616l-179 -180l-66 66v0v0v0v0l-49 49l179 179l115 -114v0zM351 362l98 99l127 -127l-98 -98l-127 126v0zM375 284l-111 -110l-89 88l111 111l89 -89v0zM274 641q8 15 12 31.5t4 34.5q0 10 -1.5 19.5t-4.5 19.5h270l-167 -168l-60 60q-6 6 -14 6t-13 -6
q-6 -6 -6 -13.5t6 -13.5l122 -123l-98 -98l-80 79q-6 6 -14 6t-13 -6q-6 -5 -6 -13t6 -14l42 -42l-166 -166v277l15 -25q6 -10 16 -15.5t21 -5.5t21 5.5t15 15.5l14.5 24t32 53t32 53.5l14.5 24.5v0zM54 661q-6 11 -8.5 22.5t-2.5 23.5q0 42 29.5 71.5t70.5 30.5
q21 0 40 -7.5t34 -22.5q5 -5 9 -10.5t8 -11.5v-0.5v-0.5q7 -11 10 -23.5t3 -25.5q0 -12 -2.5 -24t-8.5 -22l-91 -153zM103 88q-4 0 -7 3t-3 7v82l55 55l148 -148l-193 1v0zM350 87l-59 59l111 111l170 -170h-222v0zM505 209l98 98l72 -71l-99 -99l-71 72v0zM626 87l-23 23
l99 98l121 -121h-197v0zM931 87h-53l-149 149l45 44q5 6 5 14t-5 13q-6 6 -14 6t-13 -6l-45 -44l-85 85v0v0v0v0l-61 61l72 73l38 -38q3 -3 7 -4.5t8 -1.5t8 1.5t7 4.5q6 6 6 15t-6 15l-37 38l233 234h39q4 0 7 -3.5t3 -7.5v-119q-15 7 -31 10.5t-33 2.5q-59 0 -100.5 -42.5
t-42.5 -101.5q0 -17 4 -34t12 -32q0 -1 14.5 -25t32 -53t32 -53l14.5 -24q5 -10 15 -15.5t21 -5.5t21 5.5t16 15.5l25 42v-209v0q0 -4 -3 -7t-7 -3v0zM970 439l-26 -46v0v0l-65 -108l-91 154q-6 10 -8.5 22t-2.5 24q0 42 29.5 71.5t71.5 30.5q20 0 39 -7.5t34 -22.5
q15 -14 22.5 -33t7.5 -40q0 -12 -2.5 -23.5t-8.5 -21.5v0zM879 544q-24 0 -41.5 -17.5t-17.5 -42.5q0 -24 17.5 -41.5t41.5 -17.5q25 0 42 17.5t17 41.5q0 25 -17 42.5t-42 17.5v0zM879 468q-7 0 -11.5 5t-4.5 11q0 7 4.5 12t11.5 5t12 -5t5 -12q0 -6 -5 -11t-12 -5z" />
    <glyph glyph-name="uniE948" unicode="&#xe948;" 
d="M1018 774l-155 155q-3 3 -7 5t-9 2h-670q-5 0 -9 -2t-7 -5l-155 -155q-5 -5 -6 -13t4 -14l324 -494q-10 -20 -15.5 -42t-5.5 -46q0 -42 16.5 -79.5t44 -65.5t65 -44t79.5 -16t79.5 16t65 44t44 65.5t16.5 79.5q0 24 -5.5 46t-15.5 42l324 494q5 6 4 14t-6 13zM186 892
h652l111 -111h-155v0v0h-564v0v0h-155l111 111v0zM754 737l-242 -368v0v0v0v0l-242 368h484zM62 737h156l245 -374q-33 -8 -61 -26t-49 -43l-291 443v0zM512 4q-66 0 -113.5 47t-47.5 114q0 66 47.5 113.5t113.5 47.5t113.5 -47.5t47.5 -113.5q0 -67 -47.5 -114t-113.5 -47
v0zM671 294q-21 25 -49 43t-61 26l245 374h156l-291 -443v0zM519 245h-34q-9 0 -15.5 -6.5t-6.5 -15.5t6.5 -15.5t15.5 -6.5h13v-118q0 -9 6 -15.5t15 -6.5t15.5 6.5t6.5 15.5v140q0 9 -6.5 15.5t-15.5 6.5z" />
    <glyph glyph-name="uniE949" unicode="&#xe949;" 
d="M899 685v164q0 14 -6.5 25.5t-18.5 18.5t-25.5 7t-24.5 -6q-57 -32 -116.5 -57.5t-121.5 -44t-125.5 -30t-128.5 -16.5q-1 0 -80 -0.5l-79 -0.5q-29 0 -51 -19.5t-26 -48.5h-32q-26 0 -45 -19t-19 -45v-141q0 -27 19 -45.5t45 -18.5h32q3 -21 15.5 -37.5t30.5 -24.5
l115 -317q5 -15 18 -24t29 -9h116q12 0 23 5.5t18 15.5t8.5 22.5t-2.5 23.5l-99 273q60 -7 119 -19t116 -30t112 -42t109 -54q5 -3 11.5 -4.5t12.5 -1.5q7 0 13.5 1.5t12.5 5.5q12 7 18.5 18.5t6.5 24.5v165q53 7 89 47.5t36 94.5q0 55 -36 95.5t-89 47.5v0zM96 457h-32
q-6 0 -10.5 4.5t-4.5 10.5v141q0 6 4.5 10.5t10.5 4.5h32v-171zM162 392q-7 3 -12 9.5t-5 15.5v251v0q0 11 8.5 19.5t19.5 8.5h135v-307h-68h-69q-3 1 -4.5 1t-4.5 2v0zM420 46v0v0v-1v0h-116v0.5t-1 0.5l-106 294h117l106 -294v0zM850 235h-0.5t-0.5 -1h-0.5h-0.5
q-57 32 -116.5 57.5t-121 44.5t-125 31.5t-128.5 18.5v312q65 6 128.5 18.5t125 32t121 45t116.5 56.5q0 1 0.5 1t0.5 -1h0.5t0.5 -1v-614v0zM899 450v185q32 -7 54 -32.5t22 -60.5q0 -34 -22 -59.5t-54 -32.5z" />
    <glyph glyph-name="uniE94A" unicode="&#xe94a;" 
d="M1021 431l-117 316q-3 8 -9 15t-15 11q-8 3 -17 3.5t-18 -2.5l-569 -211q-9 -3 -15.5 -9t-10.5 -15q-4 -8 -4.5 -17t3.5 -18l116 -316q4 -8 10 -15t14 -10q5 -3 9.5 -4t9.5 -1q4 0 8 1l8 2l570 211q18 7 26 24t1 35zM814 713l-177 -252l-298 77zM400 227l-101 274
l234 -61l-133 -213v0zM450 220l130 208l61 -16h3.5h2.5q6 0 11 2.5t8 6.5l36 52l235 -73l-487 -180v0zM730 513l139 198l101 -274zM267 182q-3 9 -12 13t-18 1l-86 -32q-9 -4 -13 -12.5t0 -17.5q2 -7 8 -11t13 -4q2 0 4 0.5t4 1.5l86 32q9 3 13 11.5t1 17.5v0zM150 395
q-3 9 -11.5 13t-17.5 0l-54 -19q-9 -4 -12.5 -12.5t-0.5 -17.5q2 -7 8 -11t13 -4q2 0 4 0.5t4 1.5l54 19q8 4 12 12.5t1 17.5v0zM84 221q-3 9 -12 13t-17 1l-40 -15q-9 -3 -13 -11.5t-1 -17.5q3 -7 9 -11t13 -4h4t4 1l39 15q9 3 13 11.5t1 17.5v0z" />
    <glyph glyph-name="uniE94B" unicode="&#xe94b;" 
d="M1023 565v2.5t-1 2.5q-1 4 -3.5 8t-6.5 7l-147 101v110q0 11 -7.5 18.5t-18.5 7.5h-168l-144 100q-7 4 -15 4t-15 -4l-144 -100h-168q-11 0 -18.5 -7.5t-7.5 -18.5v-108l-148 -102q-5 -4 -8 -9.5t-3 -11.5v-0.5v-0.5l1 -568q0 -5 2 -10t5 -9q4 -3 9 -5t10 -2v0v0l971 1
q11 0 18.5 7.5t7.5 18.5l-1 568v0zM865 623l84 -59l-84 -58v117zM512 868l67 -46h-134zM211 769h602v-299l-202 -141l-83 64v0v0q-7 5 -16 5.5t-16 -5.5l-83 -64l-202 139v301v0zM159 624v-119l-87 59zM53 514l317 -219l-317 -246v465v0zM104 22l408 317l408 -316l-816 -1v0
zM654 295l317 221v-467l-317 246v0zM690 665h-356q-10 0 -18 -8t-8 -19t8 -18.5t18 -7.5h356q10 0 18 7.5t8 18.5t-8 19t-18 8zM690 528h-356q-10 0 -18 -7.5t-8 -18.5t8 -18.5t18 -7.5h356q10 0 18 7.5t8 18.5t-8 18.5t-18 7.5z" />
    <glyph glyph-name="uniE94C" unicode="&#xe94c;" 
d="M1023 550q0 19 -13.5 32.5t-32.5 13.5v0v0l-931 -1q-19 0 -32.5 -13.5t-13.5 -33.5l1 -526q0 -19 13.5 -32.5t32.5 -13.5v0v0l931 2q9 0 17.5 3.5t15.5 9.5q6 7 9.5 15t3.5 18l-1 526v0zM927 550l-415 -288l-415 287l830 1v0zM685 215l247 -191l-841 -2l249 193
q7 6 8.5 15.5t-4.5 17.5q-6 7 -15.5 8.5t-16.5 -4.5l-265 -206l-1 482l453 -313q3 -2 6.5 -3.5t6.5 -1.5q4 0 7 1.5t6 3.5l452 314l1 -483l-265 206q-7 6 -16.5 4.5t-15.5 -8.5q-6 -8 -5 -17.5t9 -15.5v0zM621 835l-84 75q-11 10 -25 10t-25 -10l-84 -75q-7 -6 -7.5 -15.5
t5.5 -16.5t16 -7.5t17 5.5l55 49v-177q0 -9 6.5 -16t16.5 -7t16.5 7t6.5 16v177l55 -49q4 -3 8 -4.5t8 -1.5t8.5 2t8.5 6q6 7 5.5 16.5t-7.5 15.5z" />
    <glyph glyph-name="uniE94D" unicode="&#xe94d;" 
d="M824 619q-10 0 -17 -7.5t-7 -17.5v-150q0 -59 -22.5 -111.5t-61.5 -92t-91.5 -62t-112.5 -22.5t-112.5 22.5t-91.5 62t-61.5 92t-22.5 111.5v150q0 10 -7 17.5t-17 7.5t-17 -7.5t-7 -17.5v-150q0 -66 24 -125t66.5 -104t99.5 -73t122 -33v-125h-124q-10 0 -17 -7t-7 -17
t7 -17t17 -7h296q10 0 17 7t7 17t-7 17t-17 7h-124v125q65 5 122 33t99.5 73t66.5 104t24 125v150q0 10 -7 17.5t-17 7.5v0zM528 960h-32q-41 0 -77.5 -15.5t-63.5 -43t-42.5 -63.5t-15.5 -77v-333q0 -41 15.5 -77.5t42.5 -63.5t63.5 -42.5t77.5 -15.5h32q41 0 77.5 15.5
t63.5 42.5t42.5 63.5t15.5 77.5v333q0 41 -15.5 77t-42.5 63.5t-63.5 43t-77.5 15.5zM679 698h-87q-10 0 -17 -7t-7 -17t7 -17t17 -7h87v-67h-87q-10 0 -17 -7t-7 -17t7 -17t17 -7h87v-67h-87q-10 0 -17 -7t-7 -17t7 -17t17 -7h87q-3 -60 -46.5 -101.5t-104.5 -41.5h-32
q-61 0 -104.5 41.5t-46.5 101.5h87q10 0 17 7t7 17t-7 17t-17 7h-87v67h87q10 0 17 7t7 17t-7 17t-17 7h-87v67h87q10 0 17 7t7 17t-7 17t-17 7h-87v63q0 45 23.5 81.5t61.5 54.5v-68q0 -10 7.5 -17t17.5 -7q9 0 16.5 7t7.5 17v82h33h33v-82q0 -10 7.5 -17t17.5 -7
q9 0 16.5 7t7.5 17v68q38 -18 61.5 -54.5t23.5 -81.5v-63v0z" />
    <glyph glyph-name="uniE94E" unicode="&#xe94e;" 
d="M1002 739h-980q-9 0 -15.5 -6.5t-6.5 -15.5v-538q0 -9 6.5 -15.5t15.5 -6.5h980q9 0 15.5 6.5t6.5 15.5v538q0 9 -6.5 15.5t-15.5 6.5v0zM44 695h112q-7 -43 -38 -74t-74 -38v112v0zM44 201v112q43 -7 74 -38t38 -74h-112v0zM980 201h-112q7 43 38 74t74 38v-112z
M980 358q-61 -8 -105 -52t-51 -105h-624q-7 61 -51 105t-105 52v180q61 8 105 52t51 105h624q7 -61 51 -105t105 -52v-180zM980 583q-43 7 -74 38t-38 74h112v-112zM794 543q-18 0 -31 13t-13 31q0 8 -5.5 14t-13.5 6h-438q-8 0 -13.5 -6t-5.5 -14q0 -18 -13 -31t-31 -13
q-9 0 -14.5 -6t-5.5 -14v-150q0 -8 5.5 -14t14.5 -6q18 0 31 -13t13 -31q0 -8 5.5 -14t13.5 -6h438q8 0 13.5 6t5.5 14q0 18 13 31t31 13q9 0 14.5 6t5.5 14v150q0 8 -5.5 14t-14.5 6v0zM775 390q-23 -5 -39.5 -21.5t-22.5 -39.5h-402q-6 23 -22.5 39.5t-39.5 21.5v116
q23 5 39.5 21.5t22.5 39.5h402q6 -23 22.5 -39.5t39.5 -21.5v-116v0zM437 539h-30q-8 0 -14 -6t-6 -14t6 -14t14 -6h10v-122q0 -8 6 -14t14 -6t14 6t6 14v142q0 8 -6 14t-14 6v0zM616 539h-91q-9 0 -14.5 -6t-5.5 -14v-142q0 -8 5.5 -14t14.5 -6h91q8 0 13.5 6t5.5 14v142
q0 8 -5.5 14t-13.5 6v0zM596 397h-52v102h52v-102z" />
    <glyph glyph-name="uniE94F" unicode="&#xe94f;" 
d="M962 904h-900q-26 0 -44 -18t-18 -44v-621q0 -26 18 -44t44 -18h308v-45q0 -31 -22 -53t-52 -22h-68q-10 0 -17 -7t-7 -17q0 -9 7 -16t17 -7h568q10 0 17 7t7 16q0 10 -7 17t-17 7h-68q-30 0 -52 22t-22 53v45h308q26 0 44 18t18 44v621q0 26 -18 44t-44 18v0zM392 39
q12 16 19 35t7 40v45h188v-45q0 -21 7 -40t19 -35h-240zM977 221q0 -6 -4.5 -10.5t-10.5 -4.5h-900q-6 0 -10.5 4.5t-4.5 10.5v124h930v-124zM977 392h-930v450q0 6 4.5 10.5t10.5 4.5h900q6 0 10.5 -4.5t4.5 -10.5v-450v0zM537 275q0 -10 -7 -17.5t-18 -7.5t-18 7.5
t-7 17.5q0 11 7 18.5t18 7.5t18 -7.5t7 -18.5zM552 741q-6 7 -16 7t-17 -7l-167 -166q-7 -7 -7 -17t7 -17q4 -3 8 -5t9 -2q4 0 8.5 2t8.5 5l166 167q7 7 7 17t-7 16v0zM651 645q-7 7 -16.5 7t-16.5 -7l-66 -67q-7 -7 -7 -16.5t7 -16.5q3 -3 7.5 -5t8.5 -2q5 0 9 2t8 5l66 66
q7 7 7 17t-7 17z" />
    <glyph glyph-name="uniE950" unicode="&#xe950;" 
d="M910 944q-18 13 -39 15.5t-41 -4.5l-435 -161q-26 -9 -41.5 -31.5t-15.5 -49.5v-490q-19 13 -42 18t-50 1q-29 -4 -57.5 -19t-52.5 -38q-23 -24 -38 -52.5t-19 -57.5q-5 -32 3.5 -59t27.5 -47q17 -16 38 -24.5t46 -8.5q6 0 11.5 0.5t10.5 1.5q30 4 58 18.5t52 38.5
t38.5 52t18.5 58q1 5 1.5 9.5t0.5 8.5v67.5v146v146v66.5l515 189v-309q-19 14 -42.5 19t-49.5 1q-30 -4 -58 -19t-52 -38q-24 -24 -38.5 -52.5t-18.5 -57.5q-5 -32 3 -59t28 -47q16 -16 37.5 -24.5t46.5 -8.5q5 0 10.5 0.5t11.5 0.5q29 5 57.5 19.5t52.5 38.5q23 24 38 52
t19 58q0 2 0.5 90t0.5 193t0.5 192l0.5 87q0 21 -10 39.5t-27 30.5v0zM338 126v-7t-1 -7q-3 -22 -14.5 -44t-29.5 -40t-39.5 -29.5t-44.5 -14.5q-20 -3 -37 2t-28 16q-12 12 -16.5 29t-2.5 37q4 22 15 43.5t30 39.5q18 19 39.5 30t43.5 15q4 0 7.5 0.5t7.5 0.5q15 0 28 -5
t23 -14q9 -10 14 -23t5 -28v-1v0zM900 788l-515 -189v114q0 12 7 22.5t19 14.5l436 161q9 3 18.5 2t17.5 -7t12.5 -14.5t4.5 -17.5v-86v0zM900 333q0 -4 -0.5 -7.5t-0.5 -6.5q-4 -23 -15 -44.5t-30 -39.5q-18 -18 -39.5 -29.5t-43.5 -14.5q-20 -3 -37 1.5t-29 16.5
q-11 12 -16 29t-2 37q3 22 14.5 43.5t29.5 39.5q18 19 39.5 30t44.5 15q3 0 7 0.5t7 0.5q16 0 29 -5t22 -15q10 -9 15 -22t5 -28v-1v0z" />
    <glyph glyph-name="uniE951" unicode="&#xe951;" 
d="M955 704q-25 44 -58.5 82t-73 68.5t-84.5 52.5t-95 35q-49 14 -99 17t-99.5 -3.5t-97 -22.5t-92.5 -42q-44 -25 -82 -58.5t-68.5 -73t-52.5 -84.5t-35 -95q-14 -49 -17 -99.5t3.5 -99.5t22.5 -96.5t42 -92.5q25 -44 58.5 -82t73 -68.5t84.5 -52.5t95 -35q33 -9 66 -13.5
t67 -4.5q66 0 131 17.5t124 51.5q44 25 82 58.5t68.5 73t52.5 84.5t35 95q14 49 17 99.5t-3.5 99.5t-22.5 96.5t-42 92.5v0zM955 329q-12 -44 -32 -84.5t-47 -76t-61 -65t-74 -52.5t-82.5 -37.5t-86.5 -20.5t-89 -3t-90 15q-44 12 -84.5 32t-76 47t-65 61t-52.5 74
t-37.5 82.5t-20.5 86.5t-3 89t15 90q12 44 32 84.5t47 76t61 65t74 52.5t82.5 37.5t86.5 20.5t89 3t90 -15q44 -12 84.5 -32t76 -47t65 -61t52.5 -74t37.5 -82.5t20.5 -86.5t3 -89t-15 -90zM624 492l-278 161q-12 7 -25.5 7t-26.5 -7q-12 -7 -18.5 -19t-6.5 -26v-320
q0 -14 6.5 -26t18.5 -19q7 -3 13.5 -5t12.5 -2q7 0 13.5 2t12.5 5l278 161q12 7 18.5 18.5t6.5 25.5t-6.5 25.5t-18.5 18.5v0zM322 291v314l272 -157l-272 -157v0zM728 654q-11 0 -18.5 -8t-7.5 -19v-358q0 -11 7.5 -19t18.5 -8q12 0 19.5 8t7.5 19v358q0 11 -7.5 19
t-19.5 8v0z" />
    <glyph glyph-name="uniE952" unicode="&#xe952;" 
d="M512 407q-42 0 -72 -30t-30 -72q0 -21 8.5 -40t23.5 -34v-91q0 -29 20.5 -49.5t49.5 -20.5t49.5 20.5t20.5 49.5v91q15 15 23.5 34t8.5 40q0 42 -30 72t-72 30v0zM548 267q-7 -7 -11 -16t-4 -19v-92q0 -9 -6 -15t-15 -6t-15 6t-6 15v92q0 10 -4 19t-11 16q-8 7 -12 17
t-4 21q0 22 15 37t37 15t37 -15t15 -37q0 -11 -4 -21t-12 -17zM810 540h-473v196q0 72 51.5 123.5t123.5 51.5t123.5 -51.5t51.5 -123.5v-89q0 -10 7 -17t18 -7q10 0 17 7t7 17v89q0 46 -17.5 87t-48 71.5t-71.5 48t-87 17.5t-87 -17.5t-71.5 -48t-48 -71.5t-17.5 -87v-196
h-74q-30 0 -52 -21.5t-22 -52.5v-456q0 -31 22 -52.5t52 -21.5h596q30 0 52 21.5t22 52.5v456q0 31 -22 52.5t-52 21.5v0zM835 10q0 -10 -7.5 -17.5t-17.5 -7.5h-596q-10 0 -17.5 7.5t-7.5 17.5v456q0 11 7.5 18t17.5 7h596q10 0 17.5 -7t7.5 -18v-456v0z" />
    <glyph glyph-name="uniE953" unicode="&#xe953;" 
d="M512 407q-42 0 -72 -30t-30 -72q0 -21 8.5 -40t23.5 -34v-91q0 -29 20.5 -49.5t49.5 -20.5t49.5 20.5t20.5 49.5v91q15 15 23.5 34t8.5 40q0 42 -30 72t-72 30v0zM548 267q-7 -7 -11 -16t-4 -19v-92q0 -9 -6 -15t-15 -6t-15 6t-6 15v92q0 10 -4 19t-11 16q-8 7 -12 17
t-4 21q0 22 15 37t37 15t37 -15t15 -37q0 -11 -4 -21t-12 -17zM810 540h-74v196q0 46 -17.5 87t-48 71.5t-71.5 48t-87 17.5t-87 -17.5t-71.5 -48t-48 -71.5t-17.5 -87v-196h-74q-30 0 -52 -21.5t-22 -52.5v-456q0 -31 22 -52.5t52 -21.5h596q30 0 52 21.5t22 52.5v456
q0 31 -22 52.5t-52 21.5v0zM337 736q0 72 51.5 123.5t123.5 51.5t123.5 -51.5t51.5 -123.5v-196h-350v196v0zM835 10v0q0 -10 -7.5 -17.5t-17.5 -7.5h-596q-10 0 -17.5 7.5t-7.5 17.5v456q0 11 7.5 18t17.5 7h596q10 0 17.5 -7t7.5 -18v-456z" />
    <glyph glyph-name="uniE954" unicode="&#xe954;" 
d="M1010 921q-22 22 -67.5 9t-117.5 -62q-31 -21 -65 -47t-69.5 -56t-72 -63.5t-72.5 -70.5q-54 -54 -101 -106.5t-84.5 -101t-64 -90.5t-40.5 -75q-5 2 -9.5 3.5t-9.5 2.5q-28 5 -57.5 -2t-54.5 -25q-37 -26 -49.5 -56t-13.5 -36q-8 -28 -22 -55t-34 -50q-7 -7 -6 -17
t8 -16q25 -23 56.5 -34.5t65.5 -11.5q33 0 66 10.5t62 32.5q14 10 24 19t12 12q25 27 35.5 60.5t5.5 66.5q32 11 75 37.5t93 65t105.5 87t111.5 105.5q37 36 70.5 72.5t64 72t56 69.5t46.5 64q49 73 62 118.5t-9 67.5zM259 67q-1 -1 -9 -8.5t-19 -15.5q-42 -30 -89 -33.5
t-84 19.5q17 24 30 50.5t20 53.5v0v1v1l9 22t35 41q18 13 37.5 17.5t38.5 1.5q15 -3 27.5 -11.5t20.5 -21.5q16 -26 11 -59t-28 -58v0zM318 207l-5.5 9t-15.5 17q9 23 27.5 54t44.5 68l75 -75q-40 -29 -72 -47.5t-54 -25.5v0zM482 309l-84 84q11 14 22.5 29t24.5 29l96 -95
q-15 -13 -30 -25t-29 -22zM910 751q-20 -29 -44.5 -60.5t-53 -64.5t-60 -67t-65.5 -68q-29 -29 -56.5 -55t-53.5 -49l-101 101q24 27 50 54.5t54 55.5q34 33 68 65t67 60t64.5 53t61.5 45q71 50 100.5 58t34.5 8q1 -5 -7.5 -34.5t-58.5 -101.5v0zM239 132q-9 5 -18.5 2
t-14.5 -12q0 -1 -1 -1.5t-1 -1.5q-2 -1 -5.5 -5t-8.5 -7q-7 -5 -14.5 -8.5t-15.5 -5.5q-9 -2 -14 -10.5t-3 -18.5q2 -8 8.5 -13t14.5 -5h3.5t2.5 1q12 3 23.5 8.5t22.5 12.5q6 5 13.5 11.5t7.5 7.5q2 2 4.5 5.5t4.5 6.5q5 9 2 18.5t-11 14.5v0z" />
    <glyph glyph-name="uniE955" unicode="&#xe955;" 
d="M955 704q-25 44 -58.5 82t-73 68.5t-84.5 52.5t-95 35q-49 14 -99 17t-99.5 -3.5t-97 -22.5t-92.5 -42q-44 -25 -82 -58.5t-68.5 -73t-52.5 -84.5t-35 -95q-14 -49 -17 -99.5t3.5 -99.5t22.5 -96.5t42 -92.5q25 -44 58.5 -82t73 -68.5t84.5 -52.5t95 -35q33 -9 66 -13.5
t67 -4.5q66 0 131 17.5t124 51.5q44 25 82 58.5t68.5 73t52.5 84.5t35 95q14 49 17 99.5t-3.5 99.5t-22.5 96.5t-42 92.5v0zM955 329q-12 -44 -32 -84.5t-47 -76t-61 -65t-74 -52.5t-82.5 -37.5t-86.5 -20.5t-89 -3t-90 15q-44 12 -84.5 32t-76 47t-65 61t-52.5 74
t-37.5 82.5t-20.5 86.5t-3 89t15 90q12 44 32 84.5t47 76t61 65t74 52.5q53 31 111 46.5t117 15.5q30 0 60 -4t60 -12q44 -12 84.5 -32t76 -47t65 -61t52.5 -74t37.5 -82.5t20.5 -86.5t3 -89t-15 -90v0zM421 694h-66q-22 0 -37.5 -15.5t-15.5 -38.5v-384q0 -23 15.5 -38.5
t37.5 -15.5h66q22 0 38 15.5t16 38.5v384q0 23 -16 38.5t-38 15.5zM421 256h-66v384h66v-384v0v0zM669 694h-66q-22 0 -38 -15.5t-16 -38.5v-384q0 -23 16 -38.5t38 -15.5h66q22 0 37.5 15.5t15.5 38.5v384q0 23 -15.5 38.5t-37.5 15.5zM669 256h-66v384h66v-384v0v0z" />
    <glyph glyph-name="uniE956" unicode="&#xe956;" 
d="M985 159l-201 201q-17 17 -42.5 17t-43.5 -17l-53 -53q-12 -12 -16 -28.5t1 -31.5l-20 -20v0v0q-10 -10 -68.5 12t-137.5 101t-101 137.5t-12 68.5v0v0l20 20q4 -1 8.5 -2t8.5 -1q12 0 23 4.5t20 13.5l53 53q17 18 17 43.5t-17 42.5l-201 201q-9 9 -20 13.5t-24 4.5
q-12 0 -23 -4.5t-20 -13.5l-52 -52q-12 -12 -16 -28.5t0 -32.5l-8.5 -8.5l-8.5 -8.5q-42 -47 -49.5 -117.5t20.5 -157.5q13 -43 34 -86.5t49 -86.5t62 -85t73 -82q40 -39 82 -73t85 -62t86.5 -49t86.5 -34q34 -11 66 -16.5t61 -5.5q48 0 87 14.5t67 42.5l11 11q5 -1 9 -1.5
t8 -0.5q13 0 24 4.5t20 13.5l52 52q18 18 18 43.5t-18 43.5v0zM179 878l201 -201l-52 -52v0v0l-201 201l52 52v0zM818 37v0v0q-33 -33 -90 -38.5t-130 17.5q-39 13 -79 32.5t-80 45t-79 57.5t-76 69t-69 76t-57.5 79t-45 80t-32.5 79q-23 73 -17.5 130t38.5 90l5 6l156 -156
l-14 -14v0v0q-22 -23 -21.5 -57t17.5 -74t48 -82.5t68 -80.5q57 -56 121.5 -95t115.5 -39q16 0 30.5 5.5t26.5 16.5v0v0l14 14l156 -156zM890 63l-201 201l52 52l201 -201l-26 -26l-26 -26v0zM778 714q-44 43 -100.5 66.5t-118.5 23.5q-13 0 -22 -9t-9 -21q0 -13 9 -22
t22 -9q50 0 95 -19t80 -54t54 -80t19 -95q0 -13 9 -22t22 -9q12 0 21 9t9 22q0 62 -23.5 118.5t-66.5 100.5v0zM888 824q-33 33 -71 58.5t-80 42.5t-86.5 26t-91.5 9q-13 0 -22 -9t-9 -22q0 -12 9 -21t22 -9q81 0 154.5 -30.5t130.5 -88.5q58 -57 88.5 -130.5t30.5 -154.5
q0 -13 9 -22t21 -9q13 0 22 9t9 22q0 47 -9 91.5t-26 86.5t-42.5 80t-58.5 71zM667 603q-22 23 -49.5 34t-58.5 11v0v0q-13 0 -22 -9t-9 -21q0 -13 9 -22t22 -9v0v0q19 0 35.5 -7t29.5 -20t20 -29.5t7 -35.5q0 -13 9 -22t22 -9v0q12 0 21 9t9 22q0 31 -11 58.5t-34 49.5z
" />
    <glyph glyph-name="uniE957" unicode="&#xe957;" 
d="M512 655q-54 0 -102 -20.5t-84 -56.5t-56.5 -84t-20.5 -102t20.5 -102t56.5 -84t84 -56.5t102 -20.5t102 20.5t84 56.5t56.5 84t20.5 102t-20.5 102t-56.5 84t-84 56.5t-102 20.5v0zM512 171q-46 0 -86 17.5t-70 47.5t-47.5 70t-17.5 86t17.5 86t47.5 70t70 47.5t86 17.5
t86 -17.5t70 -47.5t47.5 -70t17.5 -86t-17.5 -86t-47.5 -70t-70 -47.5t-86 -17.5v0zM512 556q-68 0 -116 -48t-48 -116t48 -116t116 -48t116 48t48 116t-48 116t-116 48v0zM512 268q-51 0 -87.5 36.5t-36.5 87.5q0 52 36.5 88t87.5 36t87.5 -36t36.5 -88q0 -51 -36.5 -87.5
t-87.5 -36.5v0zM958 731h-270l-27 75q-6 17 -20.5 27t-32.5 10h-192q-18 0 -32.5 -10t-20.5 -27l-27 -75h-92v30q0 17 -12.5 30t-30.5 13h-63q-18 0 -30.5 -13t-12.5 -30v-30h-29q-27 0 -46.5 -19t-19.5 -47v-546q0 -27 19.5 -46.5t46.5 -19.5h892q27 0 46.5 19.5t19.5 46.5
v546q0 28 -19.5 47t-46.5 19v0zM405 791q1 4 4 6t7 2h192q4 0 7 -2t4 -6l22 -60h-258l22 60v0zM137 761v0.5t1 0.5h63q1 0 1 -0.5v-0.5v-30h-65v30zM44 565h65v-345h-65v345v0zM980 119q0 -9 -6.5 -15.5t-15.5 -6.5h-892q-9 0 -15.5 6.5t-6.5 15.5v57h87q10 0 16 6t6 16v389
q0 9 -6 15.5t-16 6.5h-87v56q0 9 6.5 15.5t15.5 6.5h607v0v0v0v0h285q9 0 15.5 -6.5t6.5 -15.5v-56h-87q-10 0 -16 -6.5t-6 -15.5v-389q0 -10 6 -16t16 -6h87v-57v0zM980 220h-65v345h65v-345v0zM512 473q-34 0 -57.5 -23.5t-23.5 -57.5q0 -8 6 -14t14 -6t14 6t6 14
q0 17 12 29t29 12q8 0 14 6t6 14q0 9 -6 14.5t-14 5.5v0z" />
    <glyph glyph-name="uniE958" unicode="&#xe958;" 
d="M894 -28l-135 286q-2 4 -5.5 7t-7.5 5l-67 30l116 195v0.5t1 0.5q17 34 26 70.5t9 74.5q0 65 -24.5 123.5t-70.5 103.5q-46 46 -105 69.5t-124 22.5q-62 -1 -119 -25.5t-102 -68.5q-44 -45 -68 -102.5t-25 -120.5q0 -38 9 -75.5t26 -71.5q1 0 1 -0.5v-0.5l116 -195
l-67 -30q-4 -2 -7.5 -5t-5.5 -7l-135 -286q-3 -7 -1.5 -15t6.5 -13q6 -6 13.5 -7.5t14.5 1.5l170 75l169 -75q5 -2 10 -2t10 2l169 75l170 -75q2 -1 4.5 -1.5t5.5 -0.5q5 0 9.5 2t8.5 6q5 5 6.5 13t-1.5 15v0zM273 520q-15 29 -22 60t-7 63q0 54 21 102.5t57 84.5t84 57.5
t102 21.5q54 1 104 -19t88 -58q39 -38 59.5 -87t20.5 -104q0 -32 -7.5 -62t-21.5 -59l-217 -364q-5 -8 -12 -10t-10 -2t-10 2t-12 10l-217 364v0zM702 64q-5 2 -10.5 2t-10.5 -2l-169 -75l-169 75q-5 2 -10.5 2t-10.5 -2l-117 -52l102 216l65 28l75 -126q10 -17 27.5 -27
t37.5 -10t37.5 10t27.5 27l75 126l65 -28l102 -216l-117 52v0zM512 757q-48 0 -81.5 -34t-33.5 -82q0 -47 33.5 -81t81.5 -34t81.5 34t33.5 81q0 48 -33.5 82t-81.5 34zM512 577q-27 0 -46 19t-19 45q0 27 19 46t46 19t46 -19t19 -46q0 -26 -19 -45t-46 -19z" />
    <glyph glyph-name="uniE959" unicode="&#xe959;" 
d="M874 810q-36 36 -78 64t-88 47t-95.5 29t-100.5 10t-100.5 -10t-95.5 -29t-88 -47t-78 -64t-64 -78t-47 -88t-29 -95.5t-10 -100.5t10 -100.5t29 -95.5t47 -88t64 -78t78 -64t88 -47t95.5 -29t100.5 -10t100.5 10t95.5 29t88 47t78 64t64 78t47 88t29 95.5t10 100.5
t-10 100.5t-29 95.5t-47 88t-64 78zM752 740l22 93q34 -23 63 -51t53 -61t42 -70t29 -77l-11 -3q-14 -2 -23.5 -11.5t-13.5 -22.5l-4 -18v-1h-1v0v0l-27 21q-11 8 -24.5 9t-25.5 -5l-34 -18q-12 -7 -18.5 -18.5t-5.5 -25.5q0 -14 8.5 -24.5t20.5 -15.5l2 -1v0h1
q0 -1 -0.5 -1h-0.5l-21 -24q0 -1 -0.5 -1t-0.5 1l-57 36q-10 7 -21.5 8t-22.5 -4q-10 -5 -17.5 -14t-9.5 -21l-4 -27q-2 -11 2 -22t12 -19l30 -28v-0.5v-0.5l-49 -74q-3 -5 -5 -11t-2 -12l-4 -106h-0.5h-0.5l-64 -64h-1v0l-42 25h-0.5h-0.5l-10 46.5t-11 48.5l-18 50
q-5 12 -15.5 20t-24.5 9l-84 8h-0.5h-0.5l-48 83v0.5v0.5l12 80v1v0l74 56h0.5h0.5l72 -30l6 -2t7 -1l99 -11q8 -1 16.5 1t15.5 7l66 47q13 10 17.5 26t-2.5 31l-6 13q-5 12 -16 19.5t-24 8.5l-185 10v0v0v0v0v0v0.5v0.5v0v0l56 15q5 2 10 4.5t9 6.5l68 64v0h1l102 11
q14 1 25.5 11t14.5 24v0zM406 778l38 71q4 8 5.5 17t-0.5 18l-5 25q16 3 33.5 4t34.5 1q18 0 35 -1t34 -4l-3 -3t-4 -3l-54 -22q-6 -2 -11 -5.5t-9 -8.5l-84 -99q-1 -1 -2 -1.5t-3 -0.5t-3 1t-2 1q-2 3 -1 6t1 4v0zM207 801v-69q0 -14 -7 -26.5t-19 -20.5l-49 -32
q-8 -5 -15.5 -12t-12.5 -15l-45 -66q18 71 56 132.5t92 108.5zM237 129l-7 -52q-55 41 -96 97.5t-63 122.5h29q2 0 4.5 -1.5t3.5 -3.5l59 -91q2 -3 4.5 -6t4.5 -5l57 -52q2 -2 3 -4.5t1 -4.5v0zM512 -18q-66 0 -126.5 17t-113.5 49l10 75q1 14 -3.5 26.5t-14.5 21.5l-29 27
t-30 27l-58 92q-8 12 -20.5 18.5t-26.5 6.5h-42q-6 26 -9 52.5t-3 53.5v6v6l95 140q3 5 7 8.5t9 6.5l49 32q22 14 34 36.5t12 48.5v103q33 23 70 39.5t77 26.5l5 -26q1 -1 0.5 -2t-0.5 -2l-38 -72q-2 -4 -4 -10l-2 -6q-2 -12 1 -23.5t11 -20.5q7 -9 17.5 -13.5t21.5 -4.5
l13.5 1.5t25.5 16.5l85 98q0 1 0.5 1.5t1.5 0.5l54 22q6 2 11 5.5t9 8.5l21 24q27 -7 52.5 -17.5t49.5 -23.5q0 -1 -13 -54l-13 -53q0 -1 -0.5 -1h-0.5l-102 -10q-8 -1 -15 -4.5t-12 -8.5l-68 -64v0v0l-56 -15q-13 -4 -22.5 -14.5t-11.5 -24.5q-1 -14 5 -26.5t18 -19.5
q5 -2 10 -3.5t11 -2.5l185 -10v0v0l6 -14v-0.5v-0.5l-66 -47v0v0l-100 11l-72 30q-11 5 -23 3t-22 -9l-74 -56q-7 -5 -12 -13t-6 -17l-12 -81q-1 -7 0.5 -15t5.5 -15l48 -83q5 -9 15 -15.5t21 -7.5l85 -7v0v0l19 -50l19 -88q2 -10 7.5 -18t14.5 -12l42 -25q5 -3 11 -4.5
t12 -1.5q9 0 17.5 3t14.5 10l65 63q7 7 10.5 15t3.5 16l4 106v0v0l49 74q9 14 7 31t-14 28l-30 28v0.5v0.5l4 27v0h1v0v0l58 -37q14 -9 31 -6.5t28 15.5l22 24q7 9 9.5 20t0.5 22q-3 11 -10.5 19.5t-18.5 12.5h-2v0v0v1v0v0v1l34 17h1v0l28 -20q9 -7 20.5 -9t22.5 2
t18.5 12.5t10.5 20.5l5 18v0.5v0.5l13 2q4 -20 5.5 -40t1.5 -41q0 -96 -36.5 -181t-100 -148.5t-148.5 -100t-181 -36.5v0z" />
    <glyph glyph-name="uniE95A" unicode="&#xe95a;" 
d="M955 704q-25 44 -58.5 82t-73 68.5t-84.5 52.5t-95 35q-49 14 -99 17t-99.5 -3.5t-97 -22.5t-92.5 -42q-44 -25 -82 -58.5t-68.5 -73t-52.5 -84.5t-35 -95q-14 -49 -17 -99.5t3.5 -99.5t22.5 -96.5t42 -92.5q25 -44 58.5 -82t73 -68.5t84.5 -52.5t95 -35q33 -9 66 -13.5
t67 -4.5q66 0 131 17.5t124 51.5q44 25 82 58.5t68.5 73t52.5 84.5t35 95q14 49 17 99t-3.5 99.5t-22.5 97t-42 92.5v0zM955 329q-12 -44 -32 -84.5t-47 -76t-61 -65t-74 -52.5t-82.5 -37.5t-86.5 -20.5t-89 -3t-90 15q-44 12 -84.5 32t-76 47t-65 61t-52.5 74t-37.5 82.5
t-20.5 86.5t-3 89t15 90q12 44 32 84.5t47 76t61 65t74 52.5q53 31 111 46.5t117 15.5q30 0 60 -4t60 -12q44 -12 84.5 -32t76 -47t65 -61t52.5 -74t37.5 -82.5t20.5 -86.5t3 -89t-15 -90v0zM758 496l-329 190q-14 8 -28.5 8t-27.5 -8q-13 -7 -20.5 -20t-7.5 -28v-380
q0 -15 7.5 -28t20.5 -20q6 -4 13 -6t15 -2q7 0 14 2t14 6l329 190q13 7 20 20t7 28t-7 28t-20 20v0zM731 446l-329 -190l-1 -0.5t-2 0.5q-1 0 -1 1v1v380v1t1 1h1h1h0.5h0.5l329 -190l0.5 -0.5t0.5 -1.5t-0.5 -1.5zM827 691q-48 62 -116.5 101.5t-145.5 49.5q-11 2 -19.5 -5
t-10.5 -18q-1 -11 5.5 -19.5t17.5 -10.5q67 -9 126 -43t100 -88q4 -5 10 -7.5t12 -2.5q4 0 8 1.5t8 4.5q9 6 10 17t-5 20z" />
    <glyph glyph-name="uniE95B" unicode="&#xe95b;" 
d="M512 960q-106 0 -199 -40.5t-162.5 -110t-110 -162.5t-40.5 -199t40.5 -199t110 -162.5t162.5 -110t199 -40.5t199 40.5t162.5 110t110 162.5t40.5 199t-40.5 199t-110 162.5t-162.5 110t-199 40.5zM512 -11q-95 0 -178.5 36.5t-145.5 98.5t-98.5 145.5t-36.5 178.5
t36.5 178.5t98.5 145.5t145.5 98.5t178.5 36.5t178.5 -36.5t145.5 -98.5t98.5 -145.5t36.5 -178.5t-36.5 -178.5t-98.5 -145.5t-145.5 -98.5t-178.5 -36.5zM677 730q-9 5 -19.5 2.5t-16.5 -12.5q-6 -9 -3 -20t12 -16q63 -37 99 -100.5t36 -135.5q0 -57 -21.5 -106.5
t-58.5 -86.5t-86.5 -58.5t-106.5 -21.5t-106.5 21.5t-86.5 58.5t-58.5 86.5t-21.5 106.5q0 72 36 135.5t99 100.5q9 5 12 16t-3 20q-6 10 -16.5 12.5t-19.5 -2.5q-38 -22 -68 -52.5t-50.5 -67t-32 -78t-11.5 -84.5q0 -68 26 -127.5t70 -103.5t103.5 -70t127.5 -26t127.5 26
t103.5 70t70 103.5t26 127.5q0 43 -11.5 84.5t-32.5 78t-50.5 67t-67.5 52.5zM512 810q-11 0 -19 -7.5t-8 -18.5v-336q0 -11 8 -19t19 -8t19 8t8 19v336q0 11 -8 18.5t-19 7.5v0z" />
    <glyph glyph-name="uniE95C" unicode="&#xe95c;" 
d="M978 888h-443v26q0 10 -6.5 16.5t-16.5 6.5t-16.5 -6.5t-6.5 -16.5v-26h-443q-19 0 -32.5 -13.5t-13.5 -32.5v-42q0 -19 13.5 -32.5t32.5 -13.5h6v-516q0 -19 13.5 -32.5t32.5 -13.5h391v-67l-170 -125q-8 -5 -9 -14.5t4 -17.5q6 -7 15.5 -8.5t16.5 3.5l143 105v-86
q0 -10 6.5 -16.5t16.5 -6.5t16.5 6.5t6.5 16.5v86l143 -105q3 -2 6.5 -3t6.5 -1q6 0 10.5 2.5t8.5 6.5q5 8 4 17.5t-9 14.5l-170 125v67h391q19 0 32.5 13.5t13.5 32.5v516h6q19 0 32.5 13.5t13.5 32.5v42q0 19 -13.5 32.5t-32.5 13.5v0zM926 238h-828v516h828v-516v0z
M978 800h-932v42h932v-42v0zM512 687q-9 0 -15 -6t-6 -14v-158h-158q-9 0 -15 -6.5t-6 -14.5q0 -41 15.5 -77.5t43 -63.5t63.5 -43t78 -16q41 0 77.5 16t63.5 43t42.5 63.5t15.5 77.5t-15.5 77.5t-42.5 63.5t-63.5 42.5t-77.5 15.5zM512 330q-61 0 -105.5 39.5t-51.5 97.5
h157q8 0 14 6t6 15v157q58 -8 98 -52.5t40 -104.5q0 -66 -46.5 -112t-111.5 -46v0zM442 709q-63 0 -107 -44.5t-44 -106.5q0 -9 6 -15t14 -6h131q8 0 14 6t6 15v130q0 9 -6 15t-14 6v0zM421 578h-87q6 33 30 57t57 31v-88z" />
    <glyph glyph-name="uniE95D" unicode="&#xe95d;" 
d="M952 744h-191v107q0 9 -6.5 15.5t-15.5 6.5h-454q-9 0 -15.5 -6.5t-6.5 -15.5v-107h-191q-30 0 -51 -21.5t-21 -51.5v-345q0 -30 21 -51t51 -21h191v-209q0 -9 6.5 -15.5t15.5 -6.5h454q9 0 15.5 6.5t6.5 15.5v209h191q30 0 51 21t21 51v345q0 30 -21 51.5t-51 21.5v0z
M761 700h51v-61h-51v61zM307 830h410v-191h-410v191v0zM212 700h51v-61h-51v61v0zM717 66h-410v286h410v-286v0zM981 326v0q0 -12 -8.5 -20.5t-20.5 -8.5h-191v55h39q9 0 15.5 6.5t6.5 15.5t-6.5 15.5t-15.5 6.5h-576q-9 0 -15.5 -6.5t-6.5 -15.5t6.5 -15.5t15.5 -6.5h39
v-55h-191q-12 0 -20.5 8.5t-8.5 20.5v345q0 12 8.5 20.5t20.5 8.5h96v-82q0 -9 6.5 -15.5t15.5 -6.5h644q9 0 15.5 6.5t6.5 15.5v82h96q12 0 20.5 -8.5t8.5 -20.5v-345zM165 521q0 -11 -8 -19t-19 -8q-12 0 -20 8t-8 19q0 12 8 20t20 8q11 0 19 -8t8 -20zM506 187h-102
q-9 0 -15 -6.5t-6 -15.5t6 -15t15 -6h102q9 0 15 6t6 15t-6 15.5t-15 6.5v0zM620 297h-216q-9 0 -15 -6.5t-6 -15.5t6 -15t15 -6h216q9 0 15 6t6 15t-6 15.5t-15 6.5v0z" />
    <glyph glyph-name="uniE95E" unicode="&#xe95e;" 
d="M964 508q0 93 -35.5 175.5t-97 144t-143.5 97t-176 35.5t-176 -35.5t-143.5 -97t-97 -144t-35.5 -175.5q0 -12 7.5 -19.5t18.5 -7.5q12 0 19.5 7.5t7.5 19.5q0 82 31.5 154.5t85.5 127t127 85.5t155 31t155 -31t127 -85.5t85.5 -127t31.5 -154.5q0 -83 -31.5 -155.5
t-85.5 -126.5t-127 -85.5t-155 -31.5h-47l67 74q7 9 6.5 20t-8.5 18q-8 8 -19.5 7t-18.5 -9l-95 -106q-12 -13 -12 -30.5t12 -31.5l95 -106q4 -4 9 -6.5t11 -2.5q5 0 9.5 1.5t8.5 5.5q8 7 8.5 18t-6.5 20l-67 74h47q94 0 176 35.5t143.5 97t97 144t35.5 176.5v0z" />
    <glyph glyph-name="uniE95F" unicode="&#xe95f;" 
d="M770 599h-110h-239.5h-239.5h-109l147 164q7 8 6.5 18.5t-8.5 17.5q-8 8 -19 7t-18 -9l-165 -185q-15 -17 -15 -39.5t15 -39.5l165 -185q4 -4 9 -6.5t11 -2.5q4 0 8.5 2t8.5 5q8 7 8.5 18t-6.5 18l-147 165h109h239.5h239.5h110q42 0 78.5 -16t64 -43.5t43.5 -64.5
t16 -79t-16 -78.5t-43.5 -64t-64 -43.5t-78.5 -16h-123q-11 0 -18.5 -7.5t-7.5 -18.5t7.5 -18.5t18.5 -7.5h123q52 0 98.5 20t81 54.5t54.5 81t20 98.5q0 53 -20 99t-54.5 81t-81 55t-98.5 20v0z" />
    <glyph glyph-name="uniE960" unicode="&#xe960;" 
d="M144 224q-60 0 -102 -42.5t-42 -101.5q0 -60 42 -102t102 -42q59 0 101.5 42t42.5 102q0 59 -42.5 101.5t-101.5 42.5v0zM144 -4q-35 0 -59.5 24.5t-24.5 59.5q0 34 24.5 58.5t59.5 24.5q34 0 58.5 -24.5t24.5 -58.5q0 -35 -24.5 -59.5t-58.5 -24.5zM691 26
q-11 56 -29.5 108.5t-45 102t-60 94.5t-73.5 86q-41 40 -86 74t-94.5 60.5t-103 45.5t-109.5 30q-16 4 -32.5 -0.5t-29.5 -14.5q-14 -11 -21 -26.5t-7 -32.5v-74q0 -27 16.5 -47.5t42.5 -26.5q75 -17 142.5 -54t122.5 -91q54 -55 91 -122.5t54 -142.5q6 -26 26.5 -42.5
t47.5 -16.5h74q17 0 32.5 7t26.5 21q10 13 14.5 29.5t0.5 32.5v0zM629 2q-1 -2 -4 -4t-8 -2h-74q-5 0 -9.5 3.5t-5.5 8.5q-9 42 -24 81.5t-35.5 77t-46 71.5t-56.5 64q-30 31 -64 56.5t-71.5 46t-77 35.5t-81.5 24q-5 1 -8.5 5.5t-3.5 9.5v74q0 5 2 8t4 4q1 1 3.5 2t5.5 1h2
h2q51 -10 100 -27.5t94.5 -42t87.5 -55.5t79 -69q37 -37 68 -78.5t55 -87t41.5 -94t27.5 -100.5q1 -4 -0.5 -7.5t-2.5 -4.5zM1023 21q-6 45 -15 88.5t-22.5 86t-30 84t-35.5 82.5q-20 39 -42.5 76.5t-48 72.5t-53.5 68.5t-59 64.5q-31 32 -65 61t-69.5 55t-73.5 49.5
t-78 43.5q-41 20 -83 37t-85.5 30.5t-87.5 23t-90 15.5q-16 2 -31.5 -2.5t-27.5 -15.5q-13 -10 -19.5 -25t-6.5 -31v-74q0 -28 18.5 -49.5t46.5 -25.5q69 -10 134.5 -30t126.5 -50.5t117 -70.5t106 -89t91.5 -105.5t73.5 -118.5q33 -64 54.5 -132t31.5 -139
q4 -28 25.5 -46.5t49.5 -18.5h74q16 0 31 6.5t25 19.5q11 12 15.5 27.5t2.5 31.5v0zM960 2q-1 -2 -4 -4t-7 -2h-74q-6 0 -10 4t-5 10q-11 76 -34 148.5t-58 140.5q-34 67 -78.5 127t-97.5 113q-54 53 -114 95.5t-125 75t-135.5 54t-143.5 32.5q-6 1 -10 5t-4 10v74q0 4 2 7
t4 4q1 1 3.5 2.5t5.5 1.5h1.5h0.5q43 -6 85 -15.5t83 -22t81 -28.5t78 -35t73.5 -41t69.5 -46.5t66 -52t61 -57.5q30 -29 56.5 -61t50.5 -65.5t45 -68.5t39 -72q19 -38 34.5 -77.5t28 -79.5t21.5 -81.5t15 -83.5q0 -4 -1.5 -7t-2.5 -4v0z" />
    <glyph glyph-name="uniE961" unicode="&#xe961;" 
d="M951 960h-878q-30 0 -51.5 -21.5t-21.5 -51.5v-878q0 -30 21.5 -51.5t51.5 -21.5h878q30 0 51.5 21.5t21.5 51.5v878q0 30 -21.5 51.5t-51.5 21.5zM49 673h115v-47h-115v47zM49 577h69v-258h-69v258zM49 270h115v-47h-115v47zM975 9q0 -10 -7 -17t-17 -7h-878
q-10 0 -17 7t-7 17v165h69v-84q0 -15 10.5 -25.5t25.5 -10.5h716q15 0 25.5 10.5t10.5 25.5v716q0 15 -10.5 25.5t-25.5 10.5h-716q-15 0 -25.5 -10.5t-10.5 -25.5v-84h-69v165q0 10 7 17t17 7h878q10 0 17 -7t7 -17v-878v0zM189 319h-24v258h24q10 0 17 7t7 17v96
q0 10 -7 17.5t-17 7.5h-24v73h694v-694h-694v73h24q10 0 17 7.5t7 17.5v96q0 10 -7 17t-17 7zM681 617q-35 35 -79 52.5t-90 17.5t-90 -17.5t-79 -52.5t-52.5 -79t-17.5 -90t17.5 -90t52.5 -79t79 -52.5t90 -17.5t90 17.5t79 52.5t52.5 79t17.5 90t-17.5 90t-52.5 79z
M706 470h-62q-2 15 -8 29.5t-15 26.5l44 44q17 -23 27.5 -48t13.5 -52v0zM534 642q27 -3 52 -13.5t48 -27.5l-44 -44q-12 9 -26.5 15t-29.5 8v62v0zM490 642v-62q-15 -2 -29.5 -8t-26.5 -15l-44 44q23 17 48 27.5t52 13.5v0zM359 570l44 -44q-9 -12 -15 -26.5t-8 -29.5h-62
q3 27 13.5 52t27.5 48v0zM318 426h62q2 -15 8 -29.5t15 -26.5l-44 -44q-17 23 -27.5 48t-13.5 52v0zM490 254q-27 3 -52 13.5t-48 27.5l44 44q12 -9 26.5 -15t29.5 -8v-62zM448 384q-13 13 -19.5 29.5t-6.5 34.5t6.5 34.5t19.5 29.5t29.5 19.5t34.5 6.5t34.5 -6.5
t29.5 -19.5t19.5 -29.5t6.5 -34.5t-6.5 -34.5t-19.5 -29.5t-29.5 -19.5t-34.5 -6.5t-34.5 6.5t-29.5 19.5zM534 254v62q15 2 29.5 8t26.5 15l44 -44q-23 -17 -48 -27.5t-52 -13.5zM665 326l-44 44q9 12 15 26.5t8 29.5h62q-3 -27 -13.5 -52t-27.5 -48v0z" />
    <glyph glyph-name="uniE962" unicode="&#xe962;" 
d="M658 223q-8 4 -16.5 9t-16.5 10q2 16 2 33t-2 34q8 4 16.5 9t16.5 10q13 8 18 23t-1 30v0v0l-23 57q-6 15 -20.5 22t-29.5 3q-9 -2 -18.5 -4.5t-18.5 -4.5q-11 13 -22.5 24.5t-24.5 22.5q2 9 4.5 18.5t4.5 18.5q4 15 -3 29.5t-22 20.5l-57 23q-15 6 -30 1t-23 -18
q-5 -8 -10 -16.5t-9 -16.5q-17 2 -34 2t-33 -2q-5 8 -10 16.5t-9 16.5q-9 13 -24 18t-30 -1l-57 -23q-14 -6 -21.5 -20.5t-3.5 -29.5q3 -9 5 -18.5t5 -18.5q-13 -11 -25 -22.5t-22 -24.5q-10 2 -19 4.5t-18 4.5q-16 4 -30 -3t-20 -22l-24 -57q-6 -15 -1 -30t19 -23l16 -10
t17 -9q-2 -17 -2 -34t2 -33q-9 -5 -17 -10t-16 -9q-14 -9 -19 -24t1 -30l24 -57q6 -14 20 -21.5t30 -3.5q9 2 18 4.5t19 5.5q10 -13 22 -25t25 -22q-3 -10 -5 -19t-5 -18q-4 -16 3.5 -30t21.5 -20l57 -24q4 -1 8.5 -2t8.5 -1q11 0 21 5.5t16 15.5q4 8 9 16t10 17
q16 -2 33 -2t34 2q4 -9 9 -17l10 -16q8 -14 23 -19t30 1l57 24q15 6 22 20t3 30q-2 9 -4.5 18t-4.5 19q13 10 24.5 22t22.5 25q9 -3 18.5 -5t18.5 -5q15 -4 29.5 3.5t20.5 21.5l23 57q6 15 1 30t-18 24v0zM610 132q-9 3 -17.5 5t-17.5 5q-13 3 -25 -1t-20 -14
q-9 -12 -19.5 -22.5t-22.5 -19.5q-10 -8 -14.5 -20.5t-0.5 -24.5q2 -9 4.5 -18t4.5 -18l-52 -21q-5 7 -9.5 15t-9.5 16q-6 11 -17.5 17t-24.5 4q-15 -2 -30 -2t-29 2q-13 2 -24.5 -4t-18.5 -17q-5 -8 -9.5 -16t-8.5 -15l-53 21q3 9 5 18t5 18q3 12 -1 24.5t-14 20.5
q-12 9 -22.5 19.5t-19.5 22.5q-8 10 -20.5 14t-24.5 1q-9 -3 -18 -5t-18 -5l-21 53q7 4 15 9t16 9q11 7 17 18.5t4 24.5q-2 14 -2 29t2 30q2 13 -4 24.5t-17 17.5q-8 5 -16 9.5t-15 9.5l21 52q9 -2 18 -4.5t18 -4.5q12 -4 24.5 0.5t20.5 14.5q9 12 19.5 22.5t22.5 19.5
q10 8 14 20t1 25q-3 9 -5 17.5t-5 17.5l53 22q4 -8 8.5 -16t9.5 -16q7 -11 18.5 -16.5t24.5 -4.5q14 2 29 2t30 -2q13 -2 24.5 4t17.5 17q5 8 9.5 16t9.5 16l52 -22q-2 -9 -4.5 -17.5t-4.5 -17.5q-4 -13 0.5 -25t14.5 -20q12 -9 22.5 -19.5t19.5 -22.5q8 -10 20 -14.5
t25 -0.5q9 2 17.5 4.5t17.5 4.5l22 -52q-8 -5 -16 -9.5t-16 -9.5q-11 -6 -16.5 -17.5t-4.5 -24.5q2 -15 2 -30t-2 -29q-2 -13 4 -24.5t17 -18.5q8 -4 16 -9t16 -9l-22 -53v0zM484 335v0v0q-25 60 -85 84.5t-120 0.5q-59 -25 -84 -85t0 -120q12 -28 34 -50t50 -34
q15 -6 30 -9t30 -3t30.5 3t29.5 9q60 25 84.5 84.5t0.5 119.5v0zM381 173q-20 -8 -42 -8t-42 8q-20 9 -35.5 24.5t-24.5 35.5q-17 42 0.5 84.5t59.5 59.5q10 4 21 6.5t21 2.5q33 0 61 -18.5t41 -50.5q18 -42 0.5 -84t-60.5 -60v0zM993 758l-12 2l-12 2q-3 10 -7 20t-10 19
l8 10t7 10q8 10 7 24t-10 23l-32 32q-9 9 -23 10t-24 -7q-5 -3 -10 -7l-10 -8q-9 6 -19 10t-20 7l-2 12l-2 12q-2 13 -12 22t-24 9h-45q-13 0 -23 -9t-12 -22l-2 -12l-2 -12q-10 -3 -20 -7t-19 -10l-10 8t-10 7q-11 8 -24.5 7t-22.5 -10l-32 -32q-9 -9 -10 -23t7 -24
q3 -5 6.5 -10t7.5 -10q-5 -9 -9 -19t-7 -20l-12 -2l-12 -2q-14 -2 -22.5 -12t-8.5 -24v-45q0 -13 8.5 -23t22.5 -12l12 -2l12 -2q3 -10 7 -20t9 -19q-4 -5 -7.5 -10t-6.5 -10q-8 -11 -7 -24.5t10 -22.5l32 -32q9 -9 22.5 -10t24.5 7q5 3 10 6.5t10 7.5q9 -5 19 -9t20 -7
l2 -12l2 -12q2 -14 12 -22.5t23 -8.5h45q14 0 24 8.5t12 22.5l2 12l2 12q10 3 20 7t19 9q5 -3 10 -7t10 -7q10 -8 24 -7t23 10l32 32q9 9 10 22.5t-7 24.5q-3 5 -7 10l-8 10q6 9 10 19t7 20l12 2l12 2q13 2 22 12t9 23v45q0 14 -9 24t-22 12v0zM980 684q-5 -1 -10.5 -2
t-10.5 -1q-11 -2 -19.5 -9t-11.5 -18q-3 -10 -7 -19.5t-9 -18.5q-5 -10 -4.5 -21t7.5 -19q3 -5 6.5 -9.5t6.5 -8.5l-22 -23q-5 4 -9.5 7t-8.5 7q-9 6 -20 7t-20 -5q-9 -5 -19 -9t-20 -7q-10 -2 -17.5 -10.5t-8.5 -19.5q-1 -5 -1.5 -10.5t-1.5 -11.5h-32q-1 6 -2 11.5
t-1 10.5q-2 11 -9 19.5t-18 10.5q-10 3 -19.5 7t-18.5 9q-10 6 -21 5t-19 -7q-5 -4 -9.5 -7t-8.5 -7l-23 23q4 4 7 8.5t7 9.5q6 8 7 19t-5 21q-5 9 -9 18.5t-7 19.5q-2 11 -10.5 18t-19.5 9q-5 0 -10.5 1t-11.5 2v32q6 1 11.5 1.5t10.5 1.5q11 1 19.5 8.5t10.5 17.5
q3 10 7 20t9 19q6 9 5 20t-7 20q-4 4 -7 8.5t-7 9.5l23 22q4 -3 8.5 -6.5t9.5 -6.5q8 -7 19 -7.5t21 4.5q9 5 18.5 9t19.5 7q11 3 18 11.5t9 19.5q0 5 1 10.5t2 10.5h32q1 -5 1.5 -10.5t1.5 -10.5q1 -11 8.5 -19.5t17.5 -11.5t20 -7t19 -9t20 -4.5t20 7.5q4 3 8.5 6.5
t9.5 6.5l22 -22q-3 -5 -6.5 -9.5t-6.5 -8.5q-7 -9 -7.5 -20t4.5 -20t9 -19t7 -20t11.5 -17.5t19.5 -8.5q5 -1 10.5 -1.5t10.5 -1.5v-32zM764 793q-39 0 -66 -27.5t-27 -65.5q0 -39 27 -66t66 -27q38 0 65.5 27t27.5 66q0 38 -27.5 65.5t-65.5 27.5zM764 648
q-21 0 -36.5 15.5t-15.5 36.5t15.5 36t36.5 15t36 -15t15 -36t-15 -36.5t-36 -15.5z" />
    <glyph glyph-name="uniE963" unicode="&#xe963;" 
d="M978 547q-14 2 -29 4t-29 4q-2 0 -3.5 1.5t-1.5 2.5q-7 25 -17 49t-23 46v3.5t1 2.5l18 24l18 24q11 16 9.5 36t-15.5 34l-64 64q-14 14 -34 15.5t-36 -9.5l-24 -18l-24 -18q-1 -1 -2.5 -1h-3.5q-22 13 -46 23t-49 17q-1 0 -2.5 1.5t-1.5 3.5q-2 14 -4 29t-4 29
q-3 20 -18 33t-35 13h-92q-20 0 -35 -13t-18 -33q-2 -14 -4 -29t-4 -29q0 -2 -1.5 -3.5t-2.5 -1.5q-25 -7 -49 -17t-46 -23h-3.5t-2.5 1l-24 18l-24 18q-16 11 -36 9.5t-34 -15.5l-64 -64q-14 -14 -15.5 -34t9.5 -36l18 -24l18 -24q1 -1 1 -2.5v-3.5q-13 -22 -23 -46
t-17 -49q0 -1 -1.5 -2.5t-3.5 -1.5q-14 -2 -29 -4t-29 -4q-20 -3 -33 -18t-13 -35v-92q0 -20 13 -35t33 -18q14 -2 29 -4t29 -4q2 0 3.5 -1.5t1.5 -2.5q7 -25 17 -49t23 -46v-3.5t-1 -2.5l-18 -24l-18 -24q-11 -16 -9.5 -36t15.5 -34l64 -64q14 -14 34 -15.5t36 9.5l24 18
l24 18q1 1 2.5 1h3.5q22 -13 46 -23t49 -17q1 0 2.5 -1.5t1.5 -3.5q2 -14 4 -29t4 -29q3 -20 18 -33t35 -13h92q20 0 35 13t18 33q2 14 4 29t4 29q0 2 1.5 3.5t2.5 1.5q25 7 49 17t46 23h3.5t2.5 -1l24 -18l24 -18q16 -11 36 -9.5t34 15.5l64 64q14 14 15.5 34t-9.5 36
l-18 24l-18 24q-1 1 -1 2.5v3.5q13 22 23 46t17 49q0 1 1.5 2.5t3.5 1.5q14 2 29 4t29 4q20 3 33 18t13 35v92q0 20 -13 35t-33 18v0zM976 402q0 -2 -1.5 -3.5t-3.5 -2.5q-14 -2 -28.5 -4t-29.5 -4q-16 -2 -28 -12.5t-16 -26.5q-6 -21 -15 -42.5t-20 -40.5q-8 -14 -7 -30.5
t11 -29.5q9 -11 18 -23t17 -23q2 -2 1.5 -4t-1.5 -4l-65 -65q-2 -1 -4 -1.5t-4 1.5q-11 8 -23 17t-23 18q-13 10 -29.5 11t-30.5 -7q-19 -11 -40.5 -20t-42.5 -15q-16 -4 -26.5 -16t-12.5 -28q-2 -15 -4 -29.5t-4 -28.5q-1 -2 -2.5 -3.5t-3.5 -1.5h-92q-2 0 -3.5 1.5
t-2.5 3.5q-2 14 -4 28.5t-4 29.5q-2 16 -12.5 28t-26.5 16q-21 6 -42.5 15t-40.5 20q-7 4 -13.5 5.5t-13.5 1.5q-8 0 -16.5 -2.5t-16.5 -8.5q-11 -9 -23 -18t-23 -17q-2 -2 -4 -1.5t-4 1.5l-65 65q-1 2 -1.5 4t1.5 4q8 11 17 23t18 23q10 13 11 29.5t-7 30.5
q-11 19 -20 40.5t-15 42.5q-4 16 -16 26.5t-28 12.5q-15 2 -29.5 4t-28.5 4q-2 1 -3.5 2.5t-1.5 3.5v92q0 2 1.5 3.5t3.5 2.5q14 2 28.5 4t29.5 4q16 2 28 12.5t16 26.5q6 21 15 42.5t20 40.5q8 14 7 30.5t-11 29.5q-9 11 -18 23t-17 23q-1 2 -1 4t1 4l65 65q2 1 4 1t4 -1
q11 -8 23 -17t23 -18q13 -10 29.5 -11t30.5 7q19 11 40.5 20t42.5 15q16 4 26.5 16t12.5 28q2 15 4 29.5t4 28.5q1 2 2.5 3.5t3.5 1.5h92q2 0 3.5 -1.5t2.5 -3.5q2 -14 4 -28.5t4 -29.5q2 -16 12.5 -28t26.5 -16q21 -6 42.5 -15t40.5 -20q14 -8 30.5 -7t29.5 11q11 9 23 18
t23 17q2 2 4 1.5t4 -1.5l65 -65q1 -2 1.5 -4t-1.5 -4q-8 -11 -17 -23t-18 -23q-10 -13 -11 -29.5t7 -30.5q11 -19 20 -40.5t15 -42.5q4 -16 16 -26.5t28 -12.5q15 -2 29.5 -4t28.5 -4q2 -1 3.5 -2.5t1.5 -3.5v-92v0zM512 670q-46 0 -86.5 -17.5t-70.5 -47.5t-47.5 -70.5
t-17.5 -86.5t17.5 -86.5t47.5 -70.5t70.5 -47.5t86.5 -17.5t86.5 17.5t70.5 47.5t47.5 70.5t17.5 86.5t-17.5 86.5t-47.5 70.5t-70.5 47.5t-86.5 17.5zM512 274q-72 0 -123 51t-51 123t51 123t123 51t123 -51t51 -123t-51 -123t-123 -51z" />
    </font>
</defs>
</svg>
